<?xml version="1.0" standalone="no"?>
<!DOCTYPE svg PUBLIC "-//W3C//DTD SVG 20010904//EN"
 "http://www.w3.org/TR/2001/REC-SVG-20010904/DTD/svg10.dtd">
<svg version="1.0" xmlns="http://www.w3.org/2000/svg"
 width="793.000000pt" height="1024.000000pt" viewBox="0 0 793.000000 1024.000000"
 preserveAspectRatio="xMidYMid meet">

<g transform="translate(0.000000,1024.000000) scale(0.100000,-0.100000)"
fill="#000000" stroke="none">
<path d="M2623 9382 c-75 -81 -180 -288 -213 -423 -15 -60 -38 -117 -72 -176
-28 -49 -60 -115 -70 -148 -22 -65 -55 -135 -64 -135 -11 0 7 129 27 202 11
38 41 118 68 176 68 151 72 166 67 273 -5 107 -10 113 -73 81 -48 -25 -68 -48
-132 -145 -61 -95 -71 -127 -71 -234 0 -82 -31 -245 -51 -269 -7 -8 -6 -13 1
-16 14 -4 -10 -120 -43 -208 -25 -66 -68 -242 -92 -382 -14 -78 -64 -206 -108
-275 -14 -21 -50 -69 -81 -107 -32 -38 -67 -88 -78 -110 -33 -65 -135 -222
-218 -337 -90 -122 -99 -139 -139 -249 -17 -45 -57 -125 -90 -178 -33 -53 -78
-135 -101 -182 -24 -47 -71 -133 -106 -192 -62 -103 -180 -366 -223 -498 -34
-103 -99 -379 -106 -450 -4 -36 -18 -114 -33 -175 -23 -102 -25 -129 -27 -370
-1 -143 -5 -286 -9 -317 -7 -50 -6 -58 8 -58 9 0 16 5 16 12 0 29 20 -12 35
-72 9 -36 27 -101 40 -145 13 -44 29 -99 35 -122 6 -24 17 -43 24 -43 9 0 16
-19 20 -52 13 -97 25 -131 46 -125 16 4 25 -6 45 -48 14 -30 25 -67 25 -84 0
-22 4 -29 14 -25 11 4 19 -9 31 -50 9 -31 20 -56 24 -56 4 0 16 -18 26 -40 10
-22 22 -40 27 -40 12 0 10 6 -17 60 -14 28 -22 50 -18 50 5 0 31 -44 58 -97
109 -210 399 -619 566 -797 177 -188 519 -485 519 -449 0 5 -30 31 -67 59
-158 119 -415 363 -531 507 -203 251 -388 524 -494 733 l-76 149 -24 199 c-15
133 -27 201 -35 204 -8 2 -13 -6 -14 -20 -1 -20 -2 -20 -9 6 -5 16 -6 42 -3
59 4 19 2 28 -4 24 -6 -4 -13 -21 -17 -39 -6 -30 -8 -31 -18 -13 -21 35 -40
148 -27 156 7 4 14 41 17 84 3 57 2 76 -7 71 -6 -4 -11 -33 -11 -64 -1 -49 -2
-54 -13 -37 -8 13 -12 66 -12 155 0 141 9 206 25 180 15 -24 20 -6 10 30 -7
25 -4 68 15 174 13 78 31 199 40 271 15 113 38 196 51 183 2 -3 -3 -28 -12
-57 -8 -29 -13 -60 -11 -69 2 -9 11 10 21 43 10 33 20 67 23 75 3 8 8 25 10
38 10 61 160 496 193 562 77 151 247 400 275 400 7 0 31 32 51 70 34 65 82
120 105 120 5 0 9 -24 10 -52 0 -29 4 -62 9 -73 11 -25 12 -16 10 63 -1 42 2
62 11 62 9 0 9 3 0 14 -10 12 -5 21 24 48 36 32 278 188 484 310 57 34 99 64
93 66 -13 4 -59 -22 -237 -133 -71 -45 -152 -95 -180 -111 l-50 -29 52 62 c28
34 52 65 54 70 7 16 160 146 165 140 3 -3 1 -14 -5 -26 -22 -40 5 -29 32 14
25 39 105 115 122 115 3 0 -8 -20 -26 -45 -18 -25 -29 -48 -26 -52 9 -8 110
87 175 167 30 36 58 70 64 75 6 6 -15 -39 -45 -100 -69 -141 -82 -178 -67
-205 6 -11 16 -20 22 -20 9 0 9 3 0 12 -16 16 -15 34 4 84 9 24 24 44 35 47
10 3 26 23 35 46 9 24 27 46 42 53 16 8 39 38 59 78 19 36 30 54 27 40 -28
-104 -32 -126 -25 -133 11 -11 61 48 146 172 27 40 54 75 59 79 14 8 -40 -83
-86 -145 -21 -29 -38 -55 -38 -58 0 -31 89 90 145 198 35 66 28 82 -17 41 -25
-23 -30 -25 -24 -9 5 11 10 36 13 56 5 33 9 37 62 53 87 27 113 34 156 40 102
16 218 53 309 98 93 47 110 63 63 63 -47 0 -25 26 55 64 90 43 153 94 144 117
-4 11 -28 14 -103 15 -85 1 -93 2 -60 11 20 6 37 14 37 20 0 16 -86 -2 -240
-49 -80 -25 -161 -49 -180 -55 -19 -6 -52 -19 -73 -30 -24 -12 -36 -14 -30 -6
4 7 22 36 40 63 21 33 49 60 82 80 48 27 59 44 35 52 -6 2 -28 -12 -51 -32
-55 -47 -64 -44 -19 5 20 23 34 45 31 51 -9 14 49 161 89 228 19 31 48 85 66
121 18 36 38 69 45 75 28 23 45 62 45 105 0 28 8 58 21 80 12 19 37 70 56 115
66 156 87 195 120 227 18 17 33 36 33 40 0 18 -40 6 -51 -14 -19 -35 -114
-148 -117 -139 -1 4 22 48 53 96 86 137 107 238 62 291 -37 43 -64 28 -154
-81 -146 -178 -180 -226 -258 -356 -42 -72 -79 -129 -81 -127 -6 7 134 368
160 413 19 31 26 59 27 99 1 49 -2 58 -27 80 -16 14 -37 25 -48 23 -12 -1 -51
-57 -118 -172 -126 -215 -133 -229 -179 -350 -80 -214 -111 -290 -121 -300 -8
-7 -9 -4 -5 8 4 10 14 46 23 80 8 34 43 134 75 221 94 249 132 462 93 521 -23
36 -42 38 -71 7z m53 -9 c8 -11 13 -45 14 -82 0 -66 -40 -267 -65 -324 -25
-57 -6 136 21 220 28 84 29 96 9 113 -22 18 -19 90 3 90 3 0 11 -8 18 -17z
m-66 -101 c-6 -25 -44 -118 -84 -206 -40 -89 -79 -174 -86 -191 -7 -16 -15
-25 -17 -18 -6 16 61 228 104 327 66 154 112 204 83 88z m357 56 c31 -29 30
-82 -3 -144 -28 -52 -97 -224 -144 -360 -23 -68 -70 -169 -57 -124 13 44 53
164 77 230 15 41 37 104 48 140 11 36 34 94 51 130 31 66 40 110 21 110 -6 0
-29 -9 -51 -19 -22 -11 -37 -15 -32 -8 5 7 17 24 26 40 21 33 33 34 64 5z
m329 -25 c30 -40 11 -140 -43 -232 -33 -57 -42 -38 -13 26 24 52 35 188 17
211 -7 8 -4 12 8 12 10 0 24 -8 31 -17z m-83 -42 c-28 -49 -51 -79 -101 -133
-27 -30 -24 -50 4 -27 16 13 16 12 5 -8 -6 -13 -20 -27 -31 -33 -10 -5 -40
-37 -65 -69 -26 -32 -55 -61 -66 -64 -12 -3 -17 -1 -12 6 25 44 104 152 148
202 28 33 71 86 94 118 24 31 45 57 48 57 3 0 -8 -22 -24 -49z m-284 -40 c-12
-28 -27 -51 -35 -51 -10 0 -7 12 9 48 31 65 40 78 44 65 2 -6 -6 -34 -18 -62z
m-279 46 c0 -19 -42 -141 -50 -147 -17 -12 -51 -93 -57 -135 -4 -34 -10 -45
-23 -45 -15 0 -9 22 41 146 33 81 62 157 65 170 6 25 24 33 24 11z m571 -80
c-29 -30 -34 -17 -8 21 16 23 23 27 25 15 2 -8 -5 -25 -17 -36z m-874 21 c-3
-13 -2 -42 2 -66 12 -59 -3 -119 -60 -244 -60 -131 -95 -248 -104 -350 -6 -67
-5 -78 8 -78 20 0 71 89 91 161 14 47 80 169 92 169 5 0 -29 -89 -80 -215 -22
-53 -47 -98 -62 -109 -32 -23 -55 -70 -88 -174 -34 -108 -60 -158 -86 -165
-20 -5 -21 -3 -15 31 3 20 12 91 19 157 9 78 20 135 33 160 67 134 181 452
181 510 1 17 8 50 16 74 25 69 18 108 -12 61 -7 -11 -19 -20 -27 -20 -8 0 -17
-12 -20 -27 -17 -87 -51 -188 -88 -264 l-42 -86 3 111 c5 127 11 145 86 261
39 59 66 90 93 104 51 27 67 27 60 -1z m868 -95 c-17 -41 -102 -173 -111 -173
-12 0 11 46 57 118 27 41 49 78 49 83 0 5 5 9 10 9 6 0 4 -16 -5 -37z m-418
-130 c-13 -33 -40 -85 -60 -116 -20 -31 -48 -79 -62 -107 -14 -27 -27 -50 -30
-50 -9 0 35 100 52 118 10 9 41 65 68 123 53 112 72 131 32 32z m-557 -19
c-18 -52 -20 -54 -15 -19 9 57 28 114 33 94 1 -9 -6 -43 -18 -75z m365 54
c-17 -86 -38 -164 -46 -172 -19 -21 -8 72 17 136 28 73 40 87 29 36z m235 -38
c-11 -28 -20 -53 -20 -56 0 -3 -4 -3 -10 1 -11 7 0 41 26 80 25 38 26 30 4
-25z m334 -12 c-8 -24 -25 -56 -39 -73 l-24 -30 0 25 c0 21 60 120 73 120 3 0
-2 -19 -10 -42z m-132 0 c-11 -18 -30 -51 -42 -73 -12 -22 -31 -49 -41 -61
-10 -11 -19 -23 -19 -26 0 -4 -17 -35 -37 -70 -35 -59 -103 -146 -103 -131 0
17 197 329 238 376 24 27 26 20 4 -15z m177 -80 c-40 -101 -62 -149 -67 -144
-11 12 68 196 84 196 2 0 -6 -24 -17 -52z m-699 20 c0 -7 -27 -56 -60 -108
-33 -52 -60 -90 -60 -85 1 28 28 94 48 115 12 13 22 29 22 35 0 15 29 55 41
55 5 0 9 -6 9 -12z m270 -45 c-11 -17 -11 -17 -6 0 3 10 6 24 7 30 0 9 2 9 5
0 3 -7 0 -20 -6 -30z m290 -25 c-13 -41 -59 -94 -70 -82 -4 5 10 38 33 73 41
65 58 69 37 9z m-149 25 c-19 -36 -81 -118 -81 -108 0 11 16 37 57 93 26 34
40 43 24 15z m214 -67 c-8 -23 -30 -97 -51 -165 -33 -107 -53 -145 -69 -129
-3 2 2 44 11 91 8 48 12 92 9 97 -6 10 33 94 68 147 19 27 23 29 33 15 9 -12
8 -25 -1 -56z m-491 -3 c-14 -38 -35 -95 -46 -128 -21 -62 -34 -85 -49 -85
-28 0 90 278 118 280 2 0 -9 -30 -23 -67z m91 3 c-8 -25 -23 -54 -34 -65 -11
-11 -27 -46 -37 -78 -21 -70 -25 -75 -44 -63 -12 8 -11 17 13 65 24 50 107
185 113 185 1 0 -4 -20 -11 -44z m-198 2 c-3 -8 -6 -5 -6 6 -1 11 2 17 5 13 3
-3 4 -12 1 -19z m377 -154 c-82 -159 -85 -167 -51 -135 20 19 39 33 41 30 2
-2 -18 -65 -45 -139 -26 -74 -48 -126 -48 -116 -1 16 -8 12 -36 -20 -20 -22
-31 -29 -25 -17 15 32 13 53 -5 47 -21 -8 -19 -2 14 65 16 31 37 86 46 122 9
35 28 84 42 109 36 66 146 230 151 226 2 -2 -36 -80 -84 -172z m-410 114 c-8
-54 -18 -73 -33 -63 -12 7 -9 25 15 84 18 44 26 36 18 -21z m-328 -9 c-15 -34
-15 -34 -9 -4 7 35 13 48 20 42 2 -3 -3 -20 -11 -38z m259 -31 c-8 -37 -78
-145 -83 -130 -2 6 6 28 18 49 68 124 76 134 65 81z m306 5 c-12 -20 -14 -14
-5 12 4 9 9 14 11 11 3 -2 0 -13 -6 -23z m-386 -49 c-8 -27 -24 -62 -36 -79
-24 -34 -22 -27 17 67 32 78 41 83 19 12z m406 -31 c-12 -20 -14 -14 -5 12 4
9 9 14 11 11 3 -2 0 -13 -6 -23z m238 -69 c-11 -49 -36 -116 -54 -149 -18 -33
-40 -84 -50 -113 -9 -28 -20 -50 -24 -48 -4 3 -16 -12 -26 -32 -36 -75 -25
-10 25 140 52 158 78 222 79 201 1 -19 21 -16 21 2 0 19 40 99 46 92 2 -2 -5
-44 -17 -93z m-549 59 c-1 -10 -7 -31 -16 -48 l-14 -30 5 34 c3 18 5 40 5 47
0 8 5 14 10 14 6 0 10 -8 10 -17z m-51 -88 c-6 -38 -15 -62 -19 -55 -5 7 -16
9 -29 5 l-22 -7 22 44 c29 56 51 90 56 84 2 -2 -1 -34 -8 -71z m-296 35 c-3
-12 -8 -19 -11 -16 -5 6 5 36 12 36 2 0 2 -9 -1 -20z m988 -17 c-12 -20 -14
-14 -5 12 4 9 9 14 11 11 3 -2 0 -13 -6 -23z m-471 -24 c0 -20 -9 -39 -27 -55
-14 -13 -28 -22 -30 -20 -2 2 6 29 17 60 23 59 40 66 40 15z m107 9 c-3 -8 -6
-5 -6 6 -1 11 2 17 5 13 3 -3 4 -12 1 -19z m23 -15 c-11 -17 -11 -17 -6 0 3
10 6 24 7 30 0 9 2 9 5 0 3 -7 0 -20 -6 -30z m-193 20 c-30 -58 -38 -86 -27
-93 8 -5 -3 -24 -36 -61 -48 -54 -83 -121 -125 -242 -21 -59 -29 -72 -61 -88
-21 -10 -40 -19 -42 -19 -3 0 9 24 26 53 45 77 188 364 188 378 0 15 59 79 73
79 4 0 6 -3 4 -7z m-251 -58 c-13 -43 -49 -95 -66 -95 -7 0 5 25 54 118 24 46
29 35 12 -23z m360 -42 c-32 -46 -34 -37 -4 20 11 23 23 37 25 30 3 -7 -7 -29
-21 -50z m-631 -20 c-9 -15 -13 -19 -10 -8 4 11 9 34 13 50 5 25 7 27 10 8 2
-12 -4 -34 -13 -50z m295 -45 c-32 -75 -86 -178 -75 -144 3 11 17 60 31 110
17 61 32 97 47 108 32 25 32 8 -3 -74z m445 53 c-8 -17 -20 -33 -26 -37 -11
-7 5 29 24 54 17 21 18 13 2 -17z m-566 -49 c-42 -76 -53 -86 -35 -34 20 57
48 102 58 96 5 -3 -6 -31 -23 -62z m366 31 c-10 -16 -24 -37 -32 -48 -13 -19
-14 -18 -7 10 7 32 31 65 47 65 5 0 1 -12 -8 -27z m29 -10 c-8 -34 -55 -127
-84 -168 l-22 -30 6 37 c6 31 91 188 103 188 2 0 0 -12 -3 -27z m60 -45 c-11
-39 -31 -79 -53 -105 -19 -23 -37 -41 -39 -39 -2 2 2 24 8 47 10 40 89 173 98
164 2 -2 -4 -32 -14 -67z m-454 -141 c-63 -193 -104 -291 -133 -324 -29 -33
-38 -28 -22 10 7 18 27 87 43 152 43 168 65 222 118 283 25 28 47 52 48 52 1
0 -23 -78 -54 -173z m296 118 c-7 -28 -29 -75 -48 -105 -19 -30 -45 -75 -57
-98 -12 -24 -24 -42 -27 -39 -6 5 42 139 69 192 21 43 68 108 73 102 2 -1 -3
-25 -10 -52z m-470 8 c-3 -7 -10 -52 -16 -99 -6 -47 -24 -137 -40 -200 -17
-64 -30 -120 -30 -125 0 -23 41 15 58 54 10 23 29 58 41 77 l23 35 -5 -30 c-2
-16 -17 -76 -32 -133 -29 -109 -26 -105 -149 -237 l-37 -40 16 34 c27 54 45
112 39 122 -9 15 -40 -31 -106 -158 -69 -132 -80 -150 -159 -254 -63 -84 -168
-239 -200 -296 -12 -21 -56 -99 -97 -173 -68 -123 -157 -260 -167 -260 -3 0 8
21 24 48 34 53 90 174 115 244 10 26 64 113 122 195 58 81 137 201 176 266 39
65 97 150 129 190 60 73 125 194 152 282 9 28 23 93 33 145 18 101 55 258 72
301 6 14 18 26 27 26 9 0 14 -6 11 -14z m696 -5 c-7 -7 -12 -8 -12 -2 0 14 12
26 19 19 2 -3 -1 -11 -7 -17z m189 -31 c-10 -9 -11 -8 -5 6 3 10 9 15 12 12 3
-3 0 -11 -7 -18z m-242 -51 c-6 -21 -13 -36 -16 -33 -3 3 0 22 7 42 16 47 23
40 9 -9z m-358 -43 c-12 -20 -14 -14 -5 12 4 9 9 14 11 11 3 -2 0 -13 -6 -23z
m400 10 c-17 -32 -40 -58 -41 -47 0 11 38 64 46 64 3 0 0 -8 -5 -17z m-247
-30 c-4 -22 -22 -54 -41 -77 -26 -28 -33 -32 -28 -16 7 21 67 129 73 130 2 0
0 -17 -4 -37z m105 -33 c-18 -32 -34 -58 -36 -56 -13 12 45 116 64 116 3 0
-10 -27 -28 -60z m281 19 c-6 -18 -10 -46 -10 -60 0 -18 -30 -69 -87 -148 -47
-67 -88 -119 -90 -118 -6 7 99 191 133 233 21 26 30 45 24 54 -5 8 0 25 13 46
26 40 30 38 17 -7z m-330 1 c0 -5 -5 -10 -11 -10 -5 0 -7 5 -4 10 3 6 8 10 11
10 2 0 4 -4 4 -10z m262 -32 c-7 -7 -12 -8 -12 -2 0 14 12 26 19 19 2 -3 -1
-11 -7 -17z m-583 -27 c-6 -18 -13 -30 -15 -28 -2 2 1 18 7 36 6 18 13 30 15
28 2 -2 -1 -18 -7 -36z m315 -18 c-4 -16 -15 -37 -26 -48 -18 -18 -17 -15 3
28 26 54 32 59 23 20z m212 -19 c-10 -14 -32 -42 -50 -62 -17 -20 -45 -55 -61
-77 -16 -22 -52 -67 -79 -100 -28 -33 -61 -74 -74 -90 -37 -47 -8 4 40 71 57
80 232 293 237 288 2 -2 -4 -15 -13 -30z m-693 -6 c-13 -26 -18 -29 -21 -15
-4 19 14 47 29 47 5 0 2 -15 -8 -32z m587 -38 c-29 -34 -55 -58 -58 -56 -7 7
87 116 100 116 5 0 -14 -27 -42 -60z m-380 45 c0 -27 -53 -101 -84 -117 -19
-10 -9 11 48 105 10 16 36 24 36 12z m305 -60 c-15 -19 -30 -33 -32 -31 -3 3
7 21 22 41 15 19 30 33 32 31 3 -3 -7 -21 -22 -41z m-120 25 c4 -6 -29 -56
-71 -113 -76 -99 -242 -297 -250 -297 -13 0 5 31 84 142 98 141 208 278 222
278 5 0 12 -5 15 -10z m-105 -12 c0 -6 -45 -56 -100 -109 -55 -54 -100 -95
-100 -92 0 3 21 39 47 79 36 57 59 81 97 104 59 34 56 33 56 18z m340 -145
c-29 -54 -60 -106 -69 -117 -9 -10 -14 -21 -12 -24 5 -6 -149 -198 -164 -205
-25 -11 -7 42 41 127 42 72 235 316 252 316 2 0 -20 -44 -48 -97z m-220 57 c0
-5 -5 -10 -11 -10 -5 0 -7 5 -4 10 3 6 8 10 11 10 2 0 4 -4 4 -10z m-181 -17
c-27 -34 -242 -273 -246 -273 -14 0 75 110 156 193 91 92 120 118 90 80z
m1088 -17 c-20 -18 -52 -36 -70 -39 -17 -4 -42 -9 -55 -13 -18 -5 -21 -3 -16
10 9 22 -23 21 -86 -4 -58 -23 -60 -23 -60 -10 0 5 33 27 73 50 69 38 75 40
162 39 l90 0 -38 -33z m-1193 12 c-55 -90 -114 -181 -114 -175 0 13 71 151 87
169 18 20 38 25 27 6z m590 -35 c-42 -57 -46 -61 -34 -28 12 31 50 78 58 71 2
-3 -9 -22 -24 -43z m-374 -19 c-50 -87 -342 -439 -453 -549 l-20 -20 16 28
c42 68 57 89 142 192 50 61 120 148 155 195 126 168 224 261 160 154z m745 47
c-37 -34 -180 -94 -268 -111 -55 -11 -105 -20 -113 -20 -25 0 -15 18 14 23 15
3 68 21 117 40 79 31 222 75 250 76 5 1 5 -2 0 -8z m-653 -68 c-27 -32 -54
-68 -61 -80 -6 -13 -21 -28 -32 -34 -18 -9 -20 -8 -12 4 19 34 134 167 144
167 6 0 -11 -26 -39 -57z m698 -3 c-14 -11 -53 -31 -87 -45 -58 -23 -224 -111
-268 -141 -11 -8 -26 -14 -34 -14 -53 0 153 123 309 185 98 39 115 42 80 15z
m-1106 -22 c-9 -18 -25 -55 -35 -82 l-19 -51 5 54 c6 52 35 111 56 111 5 0 2
-14 -7 -32z m87 -80 c-47 -70 -161 -189 -161 -170 0 6 27 35 61 66 33 31 58
60 55 64 -5 8 79 112 90 112 3 0 -18 -33 -45 -72z m1009 67 c0 -2 -10 -9 -22
-15 -22 -11 -22 -10 -4 4 21 17 26 19 26 11z m-244 -12 c-4 -5 -46 -37 -94
-73 -64 -48 -86 -70 -84 -85 2 -16 -8 -24 -54 -38 -31 -10 -58 -17 -60 -14 -6
6 42 132 60 159 12 16 28 22 68 24 29 2 76 10 103 18 62 17 70 18 61 9z m252
-25 c-4 -12 -109 -56 -133 -57 -11 0 116 67 128 68 5 1 7 -5 5 -11z m-1175
-55 c-5 -49 -13 -65 -55 -117 -27 -34 -58 -77 -69 -96 -10 -19 -41 -60 -69
-90 l-51 -55 46 65 c26 36 54 78 62 94 18 35 5 53 -27 36 -12 -6 -23 -10 -25
-8 -4 3 184 228 190 228 2 0 1 -26 -2 -57z m440 17 c-9 -16 -21 -30 -26 -30
-9 0 -1 17 21 43 23 26 25 21 5 -13z m222 8 c-4 -13 -13 -33 -21 -45 -8 -12
-26 -44 -40 -70 -33 -60 -53 -83 -71 -83 -12 0 -11 4 1 22 9 12 16 32 16 45 0
12 5 25 10 28 6 3 28 33 50 66 42 60 67 77 55 37z m333 -17 c-25 -16 -56 -32
-69 -36 -13 -3 3 10 36 29 72 42 98 48 33 7z m-689 -13 c-19 -36 -71 -99 -77
-94 -5 5 76 116 85 116 2 0 -2 -10 -8 -22z m726 -33 c-51 -23 -126 -43 -113
-30 8 9 138 54 153 54 6 0 -12 -11 -40 -24z m-1184 -8 c-10 -9 -11 -8 -5 6 3
10 9 15 12 12 3 -3 0 -11 -7 -18z m490 -5 c-25 -35 -50 -57 -57 -49 -5 5 62
77 72 77 3 0 -4 -13 -15 -28z m-501 -20 c0 -5 -7 -17 -15 -28 -14 -18 -14 -17
-4 9 12 27 19 34 19 19z m534 -4 c-20 -34 -174 -217 -174 -208 0 16 36 65 108
148 60 67 83 89 66 60z m46 -38 c-11 -22 -34 -47 -52 -56 -29 -15 -28 -13 17
40 27 31 50 56 52 56 2 0 -6 -18 -17 -40z m-429 2 c-12 -22 -41 -48 -41 -36 0
8 40 54 47 54 2 0 -1 -8 -6 -18z m610 -35 c-10 -9 -11 -8 -5 6 3 10 9 15 12
12 3 -3 0 -11 -7 -18z m-581 -32 c-30 -44 -40 -53 -40 -37 0 9 59 82 66 82 3
0 -9 -20 -26 -45z m206 0 c-26 -34 -45 -48 -30 -22 21 36 47 68 51 63 3 -3 -6
-21 -21 -41z m279 11 c-10 -14 -21 -26 -26 -26 -5 0 0 13 12 30 27 36 38 33
14 -4z m-314 -3 c-5 -10 -24 -31 -42 -48 -35 -31 -23 -10 20 38 29 31 36 34
22 10z m-342 -25 c-6 -13 -61 -90 -122 -173 -104 -141 -137 -184 -125 -160 3
6 27 55 53 110 58 123 104 187 158 220 51 30 50 30 36 3z m105 -18 c-10 -16
-36 -49 -57 -72 -44 -48 -40 -40 22 45 45 61 63 76 35 27z m365 -35 c-18 -25
-34 -45 -36 -45 -8 0 31 66 46 77 25 20 24 16 -10 -32z m-321 -4 c-14 -24 -27
-37 -36 -33 -8 3 -36 -19 -69 -54 -58 -63 -54 -52 16 39 24 32 50 56 57 53 6
-2 20 4 30 15 26 29 27 23 2 -20z m602 34 c0 -15 -48 -127 -72 -168 -83 -141
-98 -143 -49 -7 28 77 92 180 112 180 5 0 9 -2 9 -5z m-243 -35 c-12 -30 -87
-112 -87 -95 0 10 88 125 95 125 2 0 -2 -14 -8 -30z m79 -12 c-9 -12 -16 -17
-16 -10 0 18 24 54 28 42 2 -5 -4 -20 -12 -32z m-595 -58 c-42 -67 -67 -95
-95 -110 -33 -16 -36 -17 -24 -2 117 139 171 202 174 202 2 0 -23 -41 -55 -90z
m344 50 c-8 -16 -15 -35 -15 -43 0 -8 -25 -40 -56 -73 l-55 -59 32 62 c28 55
93 143 105 143 2 0 -2 -13 -11 -30z m327 8 c-7 -7 -12 -8 -12 -2 0 14 12 26
19 19 2 -3 -1 -11 -7 -17z m-466 -65 c-13 -27 -55 -84 -93 -128 -37 -44 -97
-120 -132 -168 -36 -47 -66 -85 -69 -83 -4 5 25 63 70 137 26 43 235 289 246
289 1 0 -9 -21 -22 -47z m413 -1 c-13 -36 -30 -57 -53 -65 -15 -6 -17 -4 -12
17 3 14 16 41 27 61 16 27 24 33 34 25 10 -8 11 -18 4 -38z m-359 8 c-5 -10
-46 -75 -90 -144 -44 -69 -80 -129 -80 -134 0 -13 -166 -172 -179 -172 -15 0
-12 5 67 115 54 74 201 257 222 275 3 3 19 22 34 43 31 40 43 49 26 17z m131
-23 c-5 -13 -18 -37 -28 -54 -22 -37 -253 -260 -253 -245 0 28 236 303 255
296 7 -3 15 2 18 10 4 9 9 16 11 16 3 0 2 -10 -3 -23z m-317 -19 c-17 -34 -50
-69 -129 -139 l-50 -44 55 60 c31 33 73 81 94 108 45 55 53 59 30 15z m459 15
c-9 -24 -101 -148 -147 -198 -31 -33 -29 -30 9 20 25 33 65 90 90 128 44 66
60 83 48 50z m-742 -57 c-12 -18 -21 -41 -21 -50 0 -33 -64 -142 -114 -196
-28 -30 -64 -71 -80 -90 -25 -31 -24 -27 9 35 58 106 209 335 222 335 3 0 -5
-15 -16 -34z m598 -77 c-29 -45 -55 -77 -57 -71 -2 6 11 30 27 53 17 23 31 47
31 52 0 13 42 59 48 53 2 -3 -20 -41 -49 -87z m-486 14 c-19 -55 -279 -411
-291 -399 -20 21 176 315 255 383 44 38 44 38 36 16z m438 -30 c-6 -10 -25
-34 -42 -53 l-31 -35 23 35 c24 38 50 70 56 70 2 0 -1 -8 -6 -17z m-373 -25
c-13 -17 -35 -38 -49 -47 -14 -8 -6 5 21 32 51 54 63 61 28 15z m262 -62 c-30
-41 -190 -184 -190 -169 0 9 213 223 218 218 2 -2 -10 -24 -28 -49z m-329 -88
c-32 -57 -98 -177 -147 -268 -76 -144 -99 -176 -173 -255 -48 -49 -101 -107
-119 -129 -18 -21 -35 -36 -38 -34 -17 18 502 788 531 788 2 0 -22 -46 -54
-102z m-22 42 c-8 -10 -64 -90 -125 -177 -61 -87 -144 -210 -184 -273 -77
-121 -104 -157 -75 -101 78 155 361 571 387 571 6 0 4 -9 -3 -20z m-215 -52
c-33 -55 -284 -439 -296 -453 -12 -13 17 55 54 128 26 52 233 337 245 337 2 0
1 -6 -3 -12z m320 -82 c-30 -42 -211 -251 -287 -331 -15 -16 13 34 66 120 96
153 120 185 139 185 11 0 40 20 66 44 26 25 49 43 51 41 2 -2 -14 -29 -35 -59z
m-316 -88 c-14 -18 -42 -58 -63 -88 -21 -30 -48 -68 -61 -85 -21 -29 -124
-203 -124 -210 0 -6 -122 -208 -132 -220 -36 -40 121 282 215 442 62 105 75
121 93 117 16 -4 29 5 53 35 39 48 54 56 19 9z m202 -100 c-1 -15 -15 -33 -40
-50 -22 -15 -40 -25 -40 -22 0 7 71 94 76 94 2 0 4 -10 4 -22z m-411 -100
c-83 -141 -211 -419 -239 -520 -12 -46 -23 -58 -34 -40 -7 12 63 195 80 208
20 16 5 25 -19 12 -19 -10 -19 -8 3 28 13 22 32 55 43 74 37 64 160 255 175
273 25 29 23 19 -9 -35z m-135 -115 c-25 -54 -84 -174 -131 -268 -106 -210
-139 -295 -197 -505 -66 -242 -131 -443 -144 -448 -28 -9 -6 156 45 338 62
222 73 259 82 264 9 6 -9 -101 -28 -171 -13 -46 -13 -53 -3 -53 13 0 53 189
52 240 -2 33 10 73 44 155 46 108 192 365 208 365 4 0 8 8 8 18 0 17 27 62 77
130 13 17 26 32 28 32 2 0 -16 -44 -41 -97z m185 -170 c-24 -32 -70 -96 -101
-142 -32 -47 -58 -81 -58 -76 0 4 21 47 47 94 42 77 139 198 150 187 3 -2 -15
-31 -38 -63z m-118 -11 c-16 -32 -30 -68 -29 -78 0 -11 -29 -64 -66 -118 -76
-114 -81 -120 -67 -84 30 79 180 352 189 344 2 -2 -10 -31 -27 -64z m-186
-148 c-15 -35 -33 -64 -41 -64 -10 0 -3 23 23 75 45 89 57 81 18 -11z m136
-36 c-79 -184 -173 -393 -191 -425 -20 -37 -20 -37 -16 -8 3 17 8 50 12 75 3
25 13 54 20 65 8 11 14 27 14 36 0 9 13 41 30 71 34 65 138 228 145 228 2 0
-4 -19 -14 -42z m-190 -81 c-10 -9 -11 -8 -5 6 3 10 9 15 12 12 3 -3 0 -11 -7
-18z m36 -49 c-3 -7 -5 -2 -5 12 0 14 2 19 5 13 2 -7 2 -19 0 -25z m-44 -123
c-14 -33 -45 -107 -69 -165 -41 -98 -44 -102 -44 -64 0 60 32 167 81 269 l43
90 7 -35 c6 -27 2 -49 -18 -95z m-18 -127 c-4 -23 -9 -67 -10 -98 -1 -30 -10
-71 -18 -90 -15 -34 -15 -35 -16 -7 -2 49 -27 30 -41 -30 -17 -76 -35 -95 -26
-29 3 27 6 58 6 70 0 17 2 18 10 6 6 -9 10 -10 10 -3 0 17 80 223 87 223 2 0
2 -19 -2 -42z m3 -196 c-31 -101 -49 -134 -28 -51 14 57 52 161 56 156 2 -2
-11 -49 -28 -105z m-52 -108 c0 -47 -3 -62 -18 -73 -11 -7 -24 -23 -29 -35 -7
-15 -8 -9 -4 24 10 81 28 151 39 147 6 -2 11 -30 12 -63z m-96 -78 c-12 -97
-20 -120 -34 -98 -6 10 35 214 42 208 2 -3 -2 -52 -8 -110z m-60 -13 c-21
-109 -21 -109 -30 -92 -8 14 29 163 38 154 2 -2 -1 -30 -8 -62z m-79 -144 c-6
-24 -9 -28 -10 -12 -1 24 9 56 16 50 2 -3 0 -20 -6 -38z m109 21 c0 -5 -4 -10
-10 -10 -5 0 -10 5 -10 10 0 6 5 10 10 10 6 0 10 -4 10 -10z m-90 -60 c-6 -23
-14 -40 -16 -37 -3 3 0 24 7 46 16 54 24 46 9 -9z m135 -12 c-3 -35 -15 -110
-25 -168 l-18 -105 0 85 c0 109 11 199 26 209 7 4 10 15 6 24 -4 10 -1 17 6
17 9 0 11 -16 5 -62z m-54 -64 c-6 -59 -11 -164 -12 -233 0 -69 -5 -135 -10
-146 -6 -13 -8 66 -5 223 3 170 8 248 17 258 6 8 14 13 16 10 3 -2 0 -53 -6
-112z m-52 -418 c0 -88 -1 -157 -3 -155 -3 2 -14 63 -26 134 -25 150 -37 378
-18 333 7 -16 15 -28 20 -28 12 0 10 6 -13 71 l-21 57 24 32 23 32 6 -159 c4
-87 7 -230 8 -317z m-82 432 c-3 -7 -5 -2 -5 12 0 14 2 19 5 13 2 -7 2 -19 0
-25z m90 -5 c-3 -10 -5 -4 -5 12 0 17 2 24 5 18 2 -7 2 -21 0 -30z m-96 -244
l-10 -24 0 26 c-1 14 2 29 6 33 12 12 14 -9 4 -35z m6 -101 c-3 -7 -5 -2 -5
12 0 14 2 19 5 13 2 -7 2 -19 0 -25z m41 -143 c1 -25 -1 -27 -8 -10 -5 11 -8
38 -8 60 0 38 1 39 8 10 4 -16 8 -43 8 -60z m26 -192 l6 -58 -19 50 c-11 28
-19 70 -20 95 l0 45 14 -37 c7 -20 16 -63 19 -95z m-107 55 c-3 -7 -5 -2 -5
12 0 14 2 19 5 13 2 -7 2 -19 0 -25z m140 -150 c-3 -7 -5 -2 -5 12 0 14 2 19
5 13 2 -7 2 -19 0 -25z m-22 -48 c19 -56 17 -100 -2 -65 -11 22 -27 115 -19
115 2 0 12 -22 21 -50z m46 -45 c6 -20 6 -26 -1 -19 -5 5 -12 25 -15 44 -5 36
-1 29 16 -25z m29 -154 c16 -101 9 -131 -14 -62 -12 34 -17 69 -13 97 2 24 1
47 -4 50 -5 3 -9 10 -9 17 0 6 7 2 15 -10 8 -11 19 -53 25 -92z m-52 58 c-3
-8 -7 -3 -11 10 -4 17 -3 21 5 13 5 -5 8 -16 6 -23z m102 -51 c0 -16 -3 -19
-11 -11 -6 6 -8 16 -5 22 11 17 16 13 16 -11z m10 -184 c26 -86 25 -100 -5
-44 -21 39 -34 110 -20 110 2 0 13 -30 25 -66z m-51 -4 c1 -13 0 -13 -9 0 -5
8 -9 24 -9 35 l0 20 9 -20 c5 -11 9 -27 9 -35z m99 -35 c0 -29 0 -29 -8 -5 -4
14 -8 36 -8 50 -1 23 0 23 8 5 5 -11 8 -33 8 -50z"/>
<path d="M6469 8794 c-13 -14 -49 -42 -79 -61 -30 -20 -78 -56 -105 -82 -136
-125 -291 -259 -328 -284 -53 -36 -54 -37 -29 -37 11 0 49 25 83 54 35 30 66
53 69 51 4 -2 31 21 61 51 60 62 115 99 64 44 -16 -18 -41 -45 -55 -60 -99
-106 -133 -140 -138 -135 -3 3 6 18 19 33 35 38 52 62 45 62 -12 0 -87 -103
-83 -115 3 -6 -3 -22 -14 -36 -17 -23 -18 -23 -32 -5 -8 10 -19 17 -26 15 -15
-5 74 -129 93 -129 7 0 19 7 26 15 20 24 111 72 160 85 41 10 103 35 228 91
24 11 47 17 52 14 5 -3 11 -1 15 5 3 5 13 10 21 10 12 0 11 -6 -6 -31 -23 -31
-57 -116 -92 -229 -11 -36 -28 -79 -38 -97 -11 -18 -30 -67 -44 -110 -26 -82
-58 -168 -99 -268 -34 -82 -40 -105 -28 -105 20 0 198 135 276 209 78 75 135
121 151 121 4 0 -3 -12 -17 -27 -13 -16 -3 -10 21 13 49 45 159 114 182 114 7
0 24 7 36 16 12 8 22 12 22 9 0 -4 14 5 31 19 17 14 34 26 39 26 4 0 10 6 13
14 6 16 -72 168 -88 172 -5 2 -25 -18 -44 -44 -38 -54 -135 -132 -163 -132
-11 0 -33 -9 -49 -21 -17 -12 -29 -16 -29 -9 0 7 24 78 54 159 29 80 58 169
63 196 6 28 17 76 24 107 11 51 11 59 -2 70 -9 7 -33 42 -54 78 -36 60 -154
190 -173 190 -5 0 -19 -12 -33 -26z m97 -56 c34 -35 83 -99 109 -143 l48 -80
-18 -65 c-9 -36 -21 -83 -25 -105 -4 -22 -24 -85 -44 -140 -33 -89 -40 -100
-62 -100 -29 0 -29 0 -5 33 24 35 43 72 37 72 -10 0 -175 -287 -199 -345 -14
-33 -36 -89 -51 -125 l-26 -65 25 30 c14 17 25 25 25 20 0 -6 -5 -16 -12 -23
-6 -6 -9 -15 -5 -19 8 -7 20 7 73 85 20 28 43 52 51 52 8 0 38 20 66 44 29 24
86 68 128 98 52 37 75 59 69 68 -5 8 -16 9 -30 5 -16 -5 -19 -9 -10 -15 9 -5
-10 -25 -61 -64 -41 -30 -90 -69 -109 -85 -19 -17 -39 -31 -45 -31 -16 0 97
110 150 146 27 19 45 34 39 34 -5 0 -15 -5 -22 -12 -9 -9 -12 -9 -12 0 0 7 12
17 26 22 55 21 157 108 181 155 l16 29 28 -54 c15 -30 28 -59 28 -65 1 -5 -22
-23 -50 -38 -28 -16 -49 -30 -46 -33 2 -3 22 6 42 21 42 28 67 33 59 10 -7
-18 -129 -78 -147 -72 -6 2 -32 -13 -57 -33 -25 -20 -66 -46 -91 -58 -28 -12
-91 -61 -155 -121 -60 -56 -114 -99 -121 -97 -7 3 -13 1 -13 -4 0 -11 -97 -90
-110 -90 -11 0 1 37 44 137 19 45 45 114 56 155 12 40 35 100 51 133 15 33 38
92 50 130 29 94 71 186 97 208 11 11 18 25 16 32 -3 7 6 25 19 41 36 43 77
105 77 117 0 6 -13 -1 -28 -16 -41 -39 -46 -33 -17 23 14 27 25 52 25 55 0 16
-32 0 -70 -35 -24 -22 -45 -39 -46 -37 -2 2 12 26 31 55 34 50 44 82 26 82 -5
0 -14 -7 -21 -15 -20 -24 -23 -10 -5 19 24 36 8 33 -32 -6 -34 -33 -46 -61
-16 -37 15 12 15 10 -1 -16 -30 -47 -130 -176 -175 -225 -58 -64 -51 -34 9 33
84 97 143 187 147 225 l4 35 -26 -31 c-27 -32 -33 -48 -12 -35 14 8 -5 -21
-77 -122 -133 -185 -149 -203 -191 -214 -23 -6 -69 -29 -104 -53 l-63 -42 -19
25 c-10 13 -17 28 -15 34 3 12 125 109 131 104 2 -2 -21 -30 -51 -62 -30 -31
-54 -60 -54 -63 0 -3 81 77 179 178 98 101 175 184 170 186 -4 2 -5 10 -2 18
3 8 -1 14 -11 14 -9 0 -16 6 -16 14 0 8 -5 16 -10 18 -10 3 80 78 93 78 3 0 3
-10 1 -22 -5 -22 -4 -22 13 2 10 14 27 34 39 45 11 11 23 28 27 38 3 9 10 17
14 17 5 0 36 -28 69 -62z m-7 -120 c-18 -33 -108 -165 -154 -224 -30 -38 -55
-58 -100 -78 -74 -32 -85 -33 -55 -1 12 13 26 22 30 20 8 -5 65 55 159 168 64
77 120 137 129 137 1 0 -3 -10 -9 -22z m26 -95 c-48 -88 -82 -133 -101 -133
-8 0 -33 -9 -56 -21 l-40 -21 16 24 c29 41 197 218 208 218 5 0 -7 -30 -27
-67z m-325 18 c-6 -12 -15 -21 -21 -21 -5 0 -2 11 7 25 20 30 31 26 14 -4z m4
-34 c-2 -7 -14 -19 -27 -26 -21 -13 -21 -12 2 13 27 29 33 32 25 13z m-34 -1
c0 -2 -8 -10 -17 -17 -16 -13 -17 -12 -4 4 13 16 21 21 21 13z m361 -54 c-25
-36 -50 -57 -57 -49 -7 7 55 77 68 77 5 0 0 -13 -11 -28z m-447 -44 c-67 -72
-85 -88 -97 -88 -6 0 20 31 58 70 73 74 106 89 39 18z m432 -338 c0 -10 -2
-17 -4 -15 -5 5 -49 -51 -105 -133 -43 -64 -58 -54 -17 12 17 26 30 49 30 52
0 9 81 104 89 104 4 0 7 -9 7 -20z m-10 -55 c-3 -9 -11 -13 -16 -10 -8 5 -7
11 1 21 14 18 24 11 15 -11z m-31 -57 l-6 -23 17 23 c9 12 23 22 32 22 12 0
10 -6 -8 -25 -13 -14 -30 -24 -39 -23 -9 2 -34 -25 -63 -67 -77 -111 -81 -114
-41 -37 34 66 96 152 109 152 3 0 3 -10 -1 -22z"/>
<path d="M6412 8652 c-50 -58 -68 -88 -37 -62 8 7 15 10 15 7 0 -8 -128 -168
-179 -222 -25 -27 -53 -59 -61 -70 l-15 -20 24 20 c86 73 251 260 251 285 0 6
5 8 12 4 7 -4 8 -3 4 5 -5 7 4 29 19 52 43 65 24 65 -33 1z"/>
<path d="M6617 8442 c-31 -32 -57 -62 -57 -67 1 -6 19 10 40 35 62 70 47 31
-28 -77 -65 -93 -106 -160 -85 -138 6 6 26 33 44 61 37 55 95 124 104 124 4 0
-2 -12 -13 -27 -22 -32 -48 -81 -37 -71 11 11 95 142 95 150 0 4 -7 5 -15 2
-19 -8 -19 1 1 32 30 45 9 35 -49 -24z"/>
<path d="M6580 8225 c-24 -31 -45 -53 -48 -50 -3 3 -31 -48 -63 -112 -32 -64
-57 -119 -54 -121 2 -2 18 23 35 57 62 124 149 249 160 231 5 -7 12 0 18 19
16 46 0 38 -48 -24z"/>
<path d="M6551 8234 c-12 -20 -20 -38 -18 -40 2 -2 14 14 26 36 28 50 21 53
-8 4z"/>
<path d="M6795 8030 c4 -6 1 -17 -5 -25 -7 -9 -8 -15 -2 -15 15 0 35 28 27 40
-3 5 -11 10 -16 10 -6 0 -7 -5 -4 -10z"/>
<path d="M3235 8750 c-13 -5 -14 -9 -5 -9 8 0 24 4 35 9 13 5 14 9 5 9 -8 0
-24 -4 -35 -9z"/>
<path d="M6453 8328 c-22 -26 -37 -48 -30 -48 3 0 17 16 31 35 30 39 30 46 -1
13z"/>
<path d="M5470 8057 c-31 -19 -110 -56 -175 -83 -66 -27 -155 -71 -197 -99
-42 -27 -98 -63 -124 -80 -55 -34 -61 -46 -39 -68 14 -15 13 -20 -15 -58 -16
-23 -30 -48 -30 -56 0 -17 24 -17 39 1 7 8 27 18 44 22 18 3 37 10 43 15 6 5
52 20 103 33 51 14 104 32 117 41 49 32 46 8 -11 -79 -32 -49 -58 -109 -91
-211 -25 -78 -49 -147 -53 -153 -5 -9 -28 -8 -93 2 -93 15 -126 29 -196 83
-71 54 -105 65 -247 74 -71 5 -155 15 -185 21 -35 8 -157 12 -335 12 -445 0
-601 -29 -1395 -255 -65 -19 -131 -49 -107 -49 9 0 220 62 312 92 33 11 78 23
100 27 22 5 110 26 196 49 220 57 389 90 553 107 153 16 526 25 526 13 0 -5
24 -8 53 -8 28 0 99 -7 157 -15 58 -8 130 -15 161 -15 82 0 140 -22 218 -80
60 -44 81 -53 148 -66 137 -26 124 -19 107 -59 -18 -43 -18 -96 0 -120 10 -13
26 -19 62 -19 40 0 62 7 124 43 128 75 123 73 186 62 56 -11 83 -27 154 -90
19 -17 64 -48 99 -68 36 -20 99 -68 141 -107 57 -53 93 -77 138 -94 45 -17 72
-35 95 -63 18 -22 59 -54 92 -71 79 -40 92 -52 127 -123 17 -33 43 -75 59 -93
16 -18 38 -51 50 -73 11 -23 41 -66 65 -96 25 -31 57 -79 70 -108 14 -28 40
-67 59 -85 20 -20 35 -44 35 -57 0 -13 5 -23 10 -23 23 0 7 46 -29 85 -22 24
-51 67 -65 98 -15 30 -43 74 -64 98 -21 24 -51 67 -67 94 -16 28 -41 66 -56
85 -15 19 -42 64 -61 100 -32 59 -41 68 -109 104 -41 22 -81 49 -89 60 -28 40
-61 64 -118 87 -38 15 -80 44 -128 90 -40 37 -102 84 -139 104 -37 21 -94 62
-127 91 -42 36 -77 57 -112 67 l-51 14 65 30 c36 17 67 26 68 21 2 -5 16 3 30
17 53 51 168 143 202 160 65 33 190 119 190 131 0 6 -16 38 -35 70 -19 32 -35
65 -35 73 0 9 -4 22 -9 29 -13 21 -65 -6 -137 -71 -50 -43 -71 -55 -108 -60
-55 -8 -105 -32 -166 -80 -24 -20 -48 -34 -52 -31 -4 3 -16 0 -25 -5 -17 -10
-16 -10 2 -11 16 0 17 -2 5 -10 -18 -11 -30 5 -30 39 0 20 -2 22 -16 11 -8 -8
-20 -23 -26 -34 l-11 -21 23 20 23 20 -8 -24 c-11 -37 -44 -89 -60 -95 -19 -7
-19 -4 7 41 12 21 17 34 11 28 -6 -5 -20 -28 -32 -50 -17 -32 -21 -35 -21 -17
0 13 7 36 15 53 9 16 26 64 38 107 23 80 162 336 231 426 83 109 43 153 -74
83z m100 -2 c0 -8 -16 -37 -36 -65 -36 -50 -51 -63 -40 -35 3 9 0 15 -8 15 -8
0 -17 7 -20 16 -5 13 -10 12 -38 -8 -18 -12 -40 -21 -50 -20 -22 4 -58 -15
-58 -30 0 -6 8 -4 18 5 48 44 36 7 -29 -87 -62 -90 -111 -138 -126 -122 -4 4
53 90 117 179 8 12 10 18 3 14 -6 -4 -13 -1 -16 5 -6 17 -44 -18 -109 -100
-28 -35 -52 -61 -54 -59 -3 2 11 28 31 57 40 60 46 90 9 45 -46 -55 -84 -116
-79 -126 9 -13 -15 -51 -28 -46 -7 2 -20 -2 -29 -11 -26 -22 -22 -4 14 74 17
38 32 73 32 77 1 16 130 87 221 122 50 20 122 53 160 75 74 41 115 50 115 25z
m-171 -157 c-33 -45 -67 -94 -75 -109 -9 -18 -19 -26 -29 -23 -8 4 -15 9 -15
13 0 23 151 201 172 201 4 0 -19 -37 -53 -82z m67 27 c-9 -14 -14 -31 -10 -37
5 -7 3 -8 -6 -3 -10 6 -12 4 -7 -8 4 -10 2 -16 -5 -14 -6 1 -13 -4 -16 -12 -3
-9 0 -11 7 -6 7 4 -1 -20 -18 -53 -30 -59 -51 -85 -51 -62 0 6 14 32 31 56 17
25 29 47 27 50 -8 7 -238 -361 -238 -381 0 -5 24 31 53 80 29 50 65 108 80
130 43 64 31 15 -14 -53 -56 -87 -116 -210 -140 -287 -16 -51 -24 -65 -39 -65
-11 0 -20 5 -20 11 0 16 97 293 114 328 9 16 22 34 30 38 7 4 34 43 60 86 55
94 154 227 168 227 6 0 3 -11 -6 -25z m-251 -121 c-37 -58 -65 -92 -81 -98
-34 -11 -39 -3 -16 26 11 12 48 59 83 102 35 43 64 75 66 69 2 -5 -22 -50 -52
-99z m-235 -44 c-11 -20 -40 -28 -40 -10 0 9 28 29 43 30 4 0 3 -9 -3 -20z
m17 -77 c-14 -27 -77 -61 -77 -42 0 5 11 14 24 19 14 5 33 21 42 35 22 33 30
25 11 -12z m903 -36 c19 -39 36 -75 38 -78 3 -6 -82 -69 -92 -69 -4 0 -2 9 4
21 16 29 6 49 -21 42 -24 -7 -21 4 9 40 36 42 -33 21 -72 -22 -13 -14 -26 -19
-41 -15 -17 4 -34 -4 -65 -32 -34 -31 -43 -35 -51 -23 -8 11 -17 6 -45 -26
-20 -22 -54 -66 -76 -98 -41 -61 -61 -71 -33 -18 30 58 7 31 -39 -46 -66 -111
-70 -115 -105 -111 l-30 3 27 40 c106 157 167 235 185 235 4 0 5 -10 2 -21 -5
-15 -4 -19 4 -15 13 9 15 56 2 56 -5 0 -37 -30 -71 -67 -58 -64 -60 -65 -38
-25 41 75 183 171 254 172 33 0 60 17 136 87 26 24 55 43 65 43 12 0 29 -23
53 -73z m-136 -119 c-38 -46 -76 -92 -86 -102 -10 -11 -23 -32 -30 -47 -6 -14
-20 -32 -31 -38 -15 -10 -14 -3 9 36 15 26 35 57 44 68 9 11 27 37 39 57 22
36 97 107 114 108 5 0 -22 -37 -59 -82z m-457 47 c-4 -8 -11 -15 -17 -15 -7 0
-7 6 0 21 13 23 26 19 17 -6z m416 -21 c4 -4 -9 -28 -27 -53 -57 -78 -116
-169 -116 -180 0 -9 -70 -51 -84 -51 -12 0 123 209 160 247 40 42 54 50 67 37z
m113 -39 c-16 -25 -27 -33 -113 -90 -41 -26 -51 -29 -42 -14 15 29 120 130
144 139 26 10 31 -5 11 -35z m-577 -66 c-17 -50 -73 -186 -86 -208 -1 -1 -6 0
-11 3 -6 4 -2 27 10 58 31 82 98 222 103 216 3 -3 -4 -34 -16 -69z m324 1
c-116 -188 -126 -201 -160 -215 -20 -9 -38 -14 -40 -12 -1 2 21 35 51 74 30
39 66 88 79 109 35 55 80 100 85 86 2 -7 -5 -26 -15 -42z m-209 -42 c-43 -85
-109 -188 -121 -188 -19 0 -18 3 28 88 49 92 136 185 93 100z m-148 -107 c-31
-60 -42 -68 -19 -13 22 54 34 74 39 69 3 -3 -6 -28 -20 -56z m32 -6 c-44 -79
-68 -84 -29 -7 26 51 48 76 59 67 1 -1 -12 -28 -30 -60z m-136 -58 c7 -8 20
-12 30 -9 17 4 17 2 2 -33 -21 -50 -10 -56 18 -10 26 45 37 31 13 -15 -23 -44
-12 -49 15 -6 21 34 23 35 68 29 26 -3 48 -7 49 -8 8 -5 -156 -88 -182 -92
-70 -11 -95 40 -61 122 16 38 28 43 48 22z"/>
<path d="M5060 7725 c-7 -9 -11 -18 -8 -20 3 -3 11 1 18 10 7 9 11 18 8 20 -3
3 -11 -1 -18 -10z"/>
<path d="M5476 7423 c-6 -14 -5 -15 5 -6 7 7 10 15 7 18 -3 3 -9 -2 -12 -12z"/>
<path d="M6850 7957 l-23 -32 29 27 c15 15 26 30 23 33 -3 2 -16 -10 -29 -28z"/>
<path d="M4424 7360 c-34 -21 -93 -49 -130 -61 -75 -24 -177 -72 -266 -126
-71 -42 -73 -59 -20 -158 31 -57 43 -71 65 -73 15 -2 27 1 27 7 0 6 -7 8 -15
5 -15 -6 -73 77 -93 133 -13 38 -8 43 96 101 93 53 145 76 219 97 32 9 86 35
121 57 l63 41 43 -21 c58 -28 67 -61 29 -107 -31 -37 -45 -44 -37 -17 3 9 -13
-21 -35 -67 -23 -46 -41 -87 -41 -92 0 -4 -5 -11 -11 -15 -14 -8 -2 114 12
132 6 7 5 22 -1 38 -12 34 -13 46 0 26 7 -12 11 -10 18 10 14 36 6 37 -26 7
-16 -15 -33 -27 -39 -27 -6 0 -23 -10 -39 -22 -23 -18 -27 -19 -21 -5 11 28
-7 19 -53 -28 -27 -27 -47 -41 -51 -34 -9 15 -44 -4 -91 -48 -20 -20 -40 -33
-45 -30 -6 4 -17 -9 -26 -28 -9 -19 -15 -35 -13 -35 3 0 32 28 65 62 60 61 96
76 50 20 -35 -41 -64 -100 -55 -109 5 -4 11 -2 14 6 8 22 83 101 96 101 7 0
34 23 61 50 53 54 78 66 50 24 -29 -44 -12 -35 30 16 63 78 74 64 23 -28 l-32
-57 27 24 c15 14 27 22 27 19 0 -23 -43 -369 -55 -438 -24 -149 -29 -239 -13
-245 42 -16 132 63 181 161 31 60 205 219 223 202 2 -2 -8 -21 -22 -42 -14
-21 -24 -40 -21 -42 3 -3 20 19 37 49 31 50 79 85 101 71 4 -2 21 15 37 38 16
24 39 52 51 62 21 19 21 19 21 -15 0 -29 -7 -38 -48 -67 -27 -18 -53 -32 -58
-30 -5 1 -27 -14 -49 -35 -35 -33 -37 -37 -18 -37 12 0 28 8 35 18 18 24 106
74 118 67 6 -3 10 1 10 9 0 8 14 24 30 36 17 12 30 26 30 33 0 8 -3 8 -12 -1
-19 -19 -28 -14 -28 13 0 25 14 33 25 15 3 -5 11 -10 18 -10 6 0 -8 19 -31 43
-23 23 -42 50 -42 60 0 25 -37 21 -123 -13 -42 -16 -80 -30 -86 -30 -5 0 -31
-18 -56 -40 -87 -76 -126 -41 -94 82 10 40 20 98 20 128 1 30 5 65 10 77 5 14
5 23 -1 23 -6 0 -10 11 -10 23 0 13 -8 31 -17 39 -20 18 -78 48 -90 48 -4 0
-36 -18 -69 -40z m141 -157 l-27 -48 26 30 c30 35 35 15 6 -22 -15 -19 -17
-30 -9 -44 12 -22 -6 -99 -22 -99 -7 0 -8 7 -4 18 19 46 13 41 -20 -18 -19
-36 -32 -54 -29 -40 4 14 8 41 9 60 1 19 12 53 25 75 21 37 21 38 1 15 -32
-39 -73 -180 -52 -180 6 0 2 -22 -11 -52 -37 -92 -50 -132 -52 -161 -1 -15 -8
-33 -15 -40 -11 -10 -13 -7 -8 13 4 14 14 88 23 165 9 77 19 142 23 145 3 3
15 25 26 50 32 72 121 197 133 185 2 -2 -8 -26 -23 -52z m365 -160 c0 -9 10
-28 23 -41 12 -14 16 -22 8 -17 -9 5 -24 -5 -47 -31 -20 -24 -34 -33 -34 -24
-1 8 -6 4 -12 -10 -10 -22 -12 -23 -16 -6 -2 11 3 25 12 31 9 7 16 16 16 20 0
11 -49 -35 -61 -57 -8 -14 -6 -16 8 -11 14 5 16 3 6 -7 -10 -11 -15 -11 -27 0
-13 10 -17 8 -26 -14 -5 -14 -15 -26 -22 -26 -8 0 -31 -12 -51 -26 -21 -14
-40 -24 -42 -22 -7 6 100 118 113 118 6 0 12 5 12 10 0 19 -16 10 -55 -30 -36
-37 -65 -54 -50 -30 3 6 4 10 1 10 -3 0 -15 -19 -26 -42 -11 -24 -33 -60 -48
-80 -15 -20 -50 -69 -79 -110 -28 -40 -61 -84 -73 -98 l-21 -25 16 40 c51 129
189 325 229 325 7 0 16 9 19 20 6 22 -7 27 -20 8 -4 -7 -17 -20 -27 -28 -18
-14 -18 -13 -12 8 5 15 3 22 -6 22 -16 0 -128 -117 -128 -133 1 -7 9 -1 18 12
37 51 91 105 98 99 4 -4 -21 -49 -54 -100 -34 -51 -82 -133 -106 -183 -25 -49
-46 -85 -46 -79 0 17 35 113 64 178 14 31 24 61 21 66 -3 5 4 25 15 46 12 20
19 39 16 42 -8 8 -94 -180 -108 -235 -32 -133 -39 -153 -57 -153 -32 0 -16 92
36 200 111 233 112 235 128 210 3 -5 14 -1 25 10 11 11 31 20 44 20 13 0 47
18 76 41 28 22 76 49 105 59 30 10 63 23 72 29 29 17 73 13 73 -6z m-390 -59
c0 -8 -54 -114 -78 -154 -12 -19 -22 -29 -22 -21 0 22 79 181 90 181 6 0 10
-3 10 -6z"/>
<path d="M4540 7125 c0 -5 5 -17 10 -25 5 -8 10 -10 10 -5 0 6 -5 17 -10 25
-5 8 -10 11 -10 5z"/>
<path d="M4515 7069 c-9 -17 -15 -33 -13 -35 3 -2 12 12 21 31 21 43 13 47 -8
4z"/>
<path d="M4490 7262 c-16 -16 -30 -33 -30 -38 0 -4 15 7 34 25 24 23 35 29 39
19 4 -8 6 -9 6 -1 2 25 -20 23 -49 -5z"/>
<path d="M4105 7151 c-24 -5 -33 -15 -47 -54 -19 -50 -11 -63 16 -22 19 29 20
39 4 29 -8 -5 -9 -2 -5 10 4 10 7 20 7 22 0 2 7 4 16 4 12 0 14 -3 6 -13 -6
-7 -7 -18 -2 -26 6 -10 12 -6 25 18 9 18 15 34 13 35 -2 1 -16 0 -33 -3z"/>
<path d="M2345 7119 c-74 -32 -81 -36 -73 -44 3 -3 26 4 52 16 26 11 50 18 53
16 2 -3 -7 -26 -22 -51 -15 -25 -25 -51 -23 -58 2 -6 22 20 43 58 21 38 43 72
48 75 5 4 5 9 0 12 -4 3 -40 -8 -78 -24z"/>
<path d="M2490 6636 c-25 -6 -76 -26 -115 -43 -38 -18 -91 -34 -117 -38 -26
-3 -51 -11 -54 -17 -5 -7 2 -9 20 -4 38 9 32 -1 -16 -25 -22 -11 -37 -24 -31
-27 5 -4 -21 -22 -59 -39 -38 -18 -68 -28 -66 -21 2 6 22 17 43 25 49 17 73
39 33 29 -39 -9 -35 -1 13 30 22 14 38 28 35 31 -7 8 -87 -40 -111 -67 -11
-12 -37 -31 -57 -41 -43 -22 -73 -62 -64 -85 8 -22 47 -11 111 30 81 53 89 56
212 66 65 5 132 12 149 16 31 6 150 -13 141 -23 -5 -4 -205 -36 -334 -53 -40
-5 -81 -14 -92 -20 -30 -16 -51 -51 -50 -85 0 -29 1 -28 12 10 15 47 59 75
122 75 22 0 56 4 75 10 48 13 244 40 293 40 36 0 197 -29 278 -50 19 -6 76
-14 127 -19 63 -7 111 -19 157 -39 88 -39 324 -207 359 -255 21 -31 32 -38 49
-33 14 3 29 -2 44 -16 15 -14 27 -18 33 -12 6 6 -11 46 -45 108 -72 131 -97
161 -153 191 -54 28 -39 31 30 7 58 -21 120 -79 184 -173 44 -64 73 -84 88
-60 8 12 -64 120 -109 166 -21 20 -54 44 -73 52 -20 8 -67 36 -106 62 -178
119 -258 155 -426 193 -74 16 -176 45 -225 64 -95 35 -155 51 -155 40 0 -4 10
-11 23 -16 20 -8 18 -9 -12 -9 -50 -1 -35 -8 43 -21 37 -6 116 -24 174 -39 59
-16 147 -38 195 -49 48 -12 111 -32 140 -45 61 -28 138 -100 113 -105 -33 -7
-182 39 -222 68 -45 32 -105 49 -171 50 -23 0 -70 7 -105 15 -64 14 -155 30
-238 40 -78 9 -162 24 -167 29 -7 7 96 36 128 36 15 0 31 5 34 10 11 18 -55
11 -131 -15 -84 -28 -100 -31 -64 -10 39 23 148 55 186 55 19 0 34 5 34 10 0
13 -54 12 -110 -4z m-180 -101 c0 -6 -56 -35 -67 -35 -4 1 8 9 27 20 39 22 40
22 40 15z m144 -11 l39 -7 -29 -16 c-20 -11 -56 -16 -116 -16 -47 0 -85 2 -83
4 17 16 105 49 125 46 14 -3 43 -7 64 -11z m171 -34 c12 -5 -13 -9 -68 -11
-85 -4 -115 5 -59 17 15 3 32 7 37 9 12 4 61 -4 90 -15z m-400 0 c-3 -5 -12
-10 -18 -10 -7 0 -6 4 3 10 19 12 23 12 15 0z m555 -15 l65 -15 -69 6 c-38 3
-77 9 -85 14 -24 14 10 12 89 -5z m5 -34 c92 -15 276 -59 250 -60 -86 -2 -291
22 -373 45 -54 14 -99 28 -102 31 -8 8 149 -3 225 -16z m140 -1 c13 -6 15 -9
5 -9 -8 0 -22 4 -30 9 -18 12 -2 12 25 0z m125 -10 c18 -12 2 -12 -25 0 -13 6
-15 9 -5 9 8 0 22 -4 30 -9z m-1020 -34 c0 -17 -9 -27 -30 -36 -34 -14 -43
-11 -34 14 5 13 46 43 62 46 1 0 2 -11 2 -24z m1385 -55 c35 -24 20 -27 -30
-7 -18 8 -39 24 -45 36 -11 21 -11 21 17 6 15 -8 42 -24 58 -35z m-328 33 c-3
-3 -12 -4 -19 -1 -8 3 -5 6 6 6 11 1 17 -2 13 -5z m-109 -11 c-10 -2 -26 -2
-35 0 -10 3 -2 5 17 5 19 0 27 -2 18 -5z m85 -10 c-7 -2 -19 -2 -25 0 -7 3 -2
5 12 5 14 0 19 -2 13 -5z m232 -34 c16 -16 -28 -9 -72 11 -24 10 -43 21 -43
24 0 7 103 -24 115 -35z m-122 0 c34 -16 67 -35 72 -41 6 -5 -15 2 -45 17 -30
15 -70 33 -90 41 -19 7 -27 13 -17 13 10 1 46 -13 80 -30z m184 -35 c16 -3 33
-25 58 -74 19 -38 35 -72 35 -76 0 -11 -43 22 -110 85 -35 34 -68 61 -72 61
-5 0 -8 4 -8 8 0 8 52 6 97 -4z m158 -144 c7 -14 16 -35 19 -48 7 -20 6 -21
-16 -11 -15 6 -38 38 -61 85 -20 41 -37 78 -37 82 1 11 80 -79 95 -108z m-20
73 l18 -28 -21 19 c-12 11 -22 23 -22 28 0 14 7 9 25 -19z m185 -84 c23 -33
37 -59 31 -59 -6 0 -28 27 -51 59 -22 33 -44 63 -50 66 -5 3 -15 16 -21 28
-20 39 45 -29 91 -94z m-99 -61 c28 -57 29 -61 8 -41 -20 19 -55 103 -43 103
2 0 18 -28 35 -62z m-36 -28 c3 -5 1 -10 -4 -10 -6 0 -11 5 -11 10 0 6 2 10 4
10 3 0 8 -4 11 -10z"/>
<path d="M3711 6464 c0 -11 3 -14 6 -6 3 7 2 16 -1 19 -3 4 -6 -2 -5 -13z"/>
<path d="M5288 6403 c7 -3 16 -2 19 1 4 3 -2 6 -13 5 -11 0 -14 -3 -6 -6z"/>
<path d="M4758 6368 c-32 -6 -58 -15 -58 -20 0 -5 12 -7 28 -4 15 3 46 8 69
11 24 4 45 11 49 16 6 11 -10 10 -88 -3z"/>
<path d="M6510 6316 c0 -2 27 -31 60 -65 133 -136 247 -343 339 -617 101 -299
151 -585 135 -765 -5 -49 -4 -69 5 -69 8 0 11 44 11 149 0 230 -52 478 -165
780 -55 149 -105 249 -185 371 -75 113 -200 249 -200 216z"/>
<path d="M4988 6177 c-32 -23 -58 -48 -58 -55 0 -13 -68 -47 -77 -39 -2 3 14
19 37 37 22 17 40 36 40 41 0 19 -25 7 -59 -29 -33 -34 -57 -50 -124 -84 -10
-5 -44 -22 -75 -37 -31 -16 -97 -48 -146 -71 -65 -30 -104 -57 -145 -99 -75
-76 -124 -138 -111 -143 15 -5 -164 -156 -194 -164 -14 -3 -27 -12 -30 -20 -7
-17 6 -18 22 -2 26 26 22 -4 -5 -39 -48 -63 -91 -136 -98 -168 l-7 -30 27 32
c15 19 39 35 58 38 20 4 53 25 82 53 67 62 202 168 302 237 56 39 101 80 145
135 34 43 77 86 95 95 17 8 33 19 35 23 11 25 131 113 173 127 56 18 92 41 82
52 -4 3 -24 -1 -45 -11 l-37 -18 24 26 c13 14 37 28 53 31 18 4 28 12 24 20
-5 14 48 68 77 78 17 6 16 27 -1 27 -4 0 -33 -19 -64 -43z m-133 -127 c-9 -14
-105 -62 -105 -52 0 4 24 20 53 34 61 31 60 31 52 18z m-351 -195 c-4 -9 -1
-15 7 -15 17 0 -43 -62 -147 -154 -150 -131 -151 -113 -4 36 80 81 146 147
147 147 1 1 0 -6 -3 -14z m80 -16 c-16 -17 -42 -40 -59 -51 -16 -11 -5 3 25
31 62 57 79 67 34 20z m-144 -2 c0 -1 -28 -26 -62 -56 l-63 -53 59 56 c55 52
66 61 66 53z m111 -66 c-14 -25 -122 -123 -129 -116 -5 4 125 133 136 135 1 0
-2 -8 -7 -19z m-141 -90 c0 -5 -7 -12 -16 -15 -24 -9 -28 -7 -14 9 14 17 30
20 30 6z m-180 -54 c0 -2 -10 -12 -22 -23 l-23 -19 19 23 c18 21 26 27 26 19z
m-137 -184 c8 -13 -59 -86 -74 -81 -10 3 -6 11 12 30 15 14 29 33 32 42 7 17
23 21 30 9z"/>
<path d="M2784 6085 c-23 -18 -10 -18 36 0 32 12 33 14 9 14 -14 1 -34 -6 -45
-14z"/>
<path d="M2870 6096 c0 -2 11 -6 25 -8 14 -3 25 -1 25 3 0 5 -11 9 -25 9 -14
0 -25 -2 -25 -4z"/>
<path d="M2950 6081 c0 -10 24 -21 43 -21 7 0 3 7 -7 15 -22 17 -36 19 -36 6z"/>
<path d="M2165 6063 c-43 -10 -34 -21 16 -19 l53 1 7 -39 c4 -27 2 -47 -10
-67 l-15 -27 -21 35 c-20 36 -49 62 -59 52 -3 -2 -7 -18 -10 -34 -2 -17 -5
-32 -5 -35 -1 -3 -6 3 -12 13 -15 26 -26 13 -34 -40 l-7 -48 -22 37 c-38 67
-46 51 -45 -94 0 -96 -3 -133 -13 -139 -21 -13 -31 7 -36 73 -4 59 -3 62 12
43 11 -15 15 -16 15 -5 1 8 -8 26 -18 40 l-19 25 -6 -25 c-3 -14 -7 -50 -9
-80 -2 -38 -4 -29 -5 30 -2 89 16 149 51 179 24 19 21 34 -3 21 -34 -18 -63
-89 -68 -166 -4 -67 22 -256 50 -359 6 -22 12 -68 12 -101 2 -57 7 -70 86
-209 47 -81 108 -172 136 -203 27 -32 60 -73 72 -94 12 -20 41 -52 65 -73 80
-69 108 -100 133 -148 18 -36 29 -47 41 -43 17 7 30 -5 77 -66 27 -36 46 -48
46 -29 0 4 -37 47 -81 95 -45 48 -79 89 -76 93 4 3 -3 23 -14 46 -19 36 -19
41 -5 55 15 15 16 15 16 -1 0 -9 5 -17 11 -17 7 0 8 7 4 18 -5 9 -10 46 -12
82 l-3 65 33 -90 c52 -139 86 -196 87 -143 l1 23 13 -25 c8 -14 17 -44 21 -68
4 -24 10 -41 13 -38 8 8 3 125 -8 166 -10 42 -22 182 -14 160 123 -307 123
-309 63 -378 -17 -19 -27 -37 -24 -41 9 -8 63 56 80 96 7 17 18 57 25 88 6 31
18 59 26 62 8 3 14 18 14 33 0 16 5 32 10 35 18 11 47 78 70 160 32 117 90
254 105 249 8 -4 14 16 18 63 4 37 26 131 51 208 49 156 79 319 80 440 1 103
-14 141 -62 154 -19 6 -40 7 -45 4 -6 -4 7 -11 29 -18 34 -9 41 -16 53 -55 12
-38 13 -65 3 -163 -11 -105 -40 -264 -47 -255 -1 2 0 67 3 146 4 122 7 140 18
125 12 -16 13 -15 14 12 0 45 -20 107 -33 102 -7 -2 -14 -21 -17 -43 l-6 -39
-8 35 c-5 19 -18 47 -30 61 -11 15 -26 34 -32 44 -6 11 -15 15 -22 11 -9 -6
-11 -42 -8 -139 l6 -132 -21 65 c-67 213 -63 203 -93 206 -23 2 -30 -2 -39
-26 -9 -24 -15 -28 -38 -23 -34 7 -86 -28 -95 -63 -3 -13 -10 -24 -15 -24 -15
0 -10 -48 17 -189 14 -73 23 -138 21 -144 -2 -7 -7 11 -11 38 -13 87 -57 239
-73 257 -20 22 -33 23 -33 3 0 -8 -5 -15 -10 -15 -6 0 -8 11 -4 25 4 15 2 25
-4 25 -6 0 -16 -26 -22 -57 -18 -86 -26 -95 -39 -43 -18 71 -33 94 -26 42 7
-53 30 -112 44 -112 6 0 16 19 23 43 l12 42 7 -80 c4 -44 14 -108 22 -143 8
-34 15 -106 15 -160 l1 -97 -32 131 c-20 77 -45 152 -64 185 -17 30 -34 70
-37 89 -12 60 -17 70 -31 70 -7 0 -15 11 -17 25 -3 14 -1 25 3 25 20 0 7 31
-16 40 -14 5 -25 14 -25 20 0 6 -12 29 -26 51 -14 23 -23 43 -20 46 10 10 86
-47 98 -72 6 -13 15 -22 19 -19 13 8 -16 59 -43 76 -37 24 -168 78 -187 77 -9
-1 -25 -3 -36 -6z m175 -143 c22 -43 39 -91 39 -107 -1 -18 -3 -21 -6 -10 -3
10 -11 16 -18 13 -12 -4 -43 65 -61 138 -7 27 -8 28 -20 11 -12 -15 -14 -16
-14 -3 0 8 -3 31 -6 49 l-7 34 26 -24 c14 -13 44 -59 67 -101z m490 70 c6 -11
17 -91 26 -177 18 -193 22 -222 40 -250 8 -13 14 -48 13 -85 0 -59 -4 -47 -59
172 -55 214 -67 292 -53 343 6 23 20 22 33 -3z m-664 -21 c3 -6 2 -14 -4 -18
-5 -3 -12 -17 -15 -31 -3 -16 -5 -10 -6 18 -1 40 10 54 25 31z m802 -144 l0
-40 -9 40 c-4 22 -7 65 -7 95 l1 55 7 -55 c5 -30 8 -73 8 -95z m-192 79 c-3
-26 -6 -56 -6 -68 -1 -21 -39 78 -40 102 0 6 12 12 26 12 26 0 27 -1 20 -46z
m221 24 c-3 -8 -6 -5 -6 6 -1 11 2 17 5 13 3 -3 4 -12 1 -19z m-718 -137 c12
-68 21 -127 21 -132 0 -5 4 -9 9 -9 4 0 6 24 4 53 l-4 52 22 -55 c49 -127 77
-230 84 -315 4 -50 4 -87 0 -83 -5 4 -17 34 -27 65 -11 32 -51 145 -89 252
-55 153 -69 205 -69 251 0 58 8 81 21 58 4 -7 17 -69 28 -137z m-169 108 c0
-10 -4 -19 -10 -19 -5 0 -10 12 -10 26 0 14 4 23 10 19 6 -3 10 -15 10 -26z
m81 15 c10 -13 10 -17 -1 -24 -12 -7 -11 -12 4 -29 13 -14 21 -46 27 -98 11
-104 11 -119 0 -107 -14 15 -54 193 -48 219 2 14 0 28 -4 31 -12 7 -12 24 0
24 5 0 14 -7 22 -16z m527 -17 c2 -15 -1 -27 -7 -27 -6 0 -11 3 -11 8 0 4 -3
18 -7 31 -4 18 -2 23 8 19 8 -2 15 -17 17 -31z m-17 -42 c5 -4 16 -2 23 4 15
13 27 -35 56 -238 10 -68 23 -127 29 -131 16 -9 28 -210 13 -210 -8 0 -12 22
-12 64 0 35 -4 66 -10 68 -5 2 -28 68 -49 148 -22 80 -51 180 -64 223 -13 45
-21 92 -18 110 l4 32 9 -32 c5 -18 13 -35 19 -38z m208 -66 c31 -117 39 -179
21 -179 -5 0 -12 15 -14 33 -3 17 -13 75 -22 127 -8 52 -18 106 -21 120 -3 14
-3 23 0 20 3 -3 19 -57 36 -121z m116 -99 c5 -104 5 -105 -10 -60 -15 45 -35
197 -34 255 1 24 5 18 20 -30 11 -36 21 -102 24 -165z m-965 160 c4 -3 10 -30
13 -61 7 -56 7 -57 -18 -55 -28 1 -30 6 -39 97 -7 64 1 79 23 46 8 -12 18 -24
21 -27z m64 -21 c9 -47 7 -59 -8 -53 -17 7 -27 84 -10 84 6 0 14 -14 18 -31z
m470 -6 c7 -16 17 -42 20 -60 6 -28 5 -31 -12 -26 -20 5 -32 40 -32 89 0 31 6
30 24 -3z m-14 -168 c-1 -54 -20 -2 -25 67 l-5 63 15 -50 c8 -27 15 -63 15
-80z m-385 30 c12 -41 20 -75 19 -75 -10 0 -34 62 -42 108 -13 72 -3 57 23
-33z m553 -175 c31 -122 36 -158 34 -227 -2 -46 -7 -83 -12 -83 -4 0 -11 24
-15 53 -4 28 -22 131 -40 227 -18 96 -36 202 -39 235 l-6 60 21 -60 c11 -33
36 -125 57 -205z m-617 218 c7 -13 17 -45 24 -73 8 -36 15 -49 26 -47 16 2 78
-126 109 -223 7 -22 34 -92 60 -155 73 -179 91 -241 88 -302 l-3 -53 -24 70
c-13 39 -53 142 -89 230 -134 331 -212 537 -212 560 0 21 7 18 21 -7z m717
-126 c24 -101 27 -124 16 -133 -8 -6 -14 -19 -14 -28 -1 -14 -2 -14 -9 -1 -4
8 -14 71 -20 140 -7 69 -14 134 -16 144 -2 11 0 15 5 10 5 -5 22 -64 38 -132z
m55 18 c4 -29 2 -39 -3 -29 -5 8 -11 47 -14 85 -4 52 -3 59 3 29 5 -22 11 -60
14 -85z m-829 71 c21 -39 36 -111 25 -111 -10 0 -44 73 -55 116 -9 34 12 30
30 -5z m906 15 c0 -7 3 -35 6 -62 5 -33 3 -46 -4 -39 -12 13 -22 115 -11 115
5 0 9 -6 9 -14z m-345 -136 l4 -55 -18 70 c-11 39 -19 84 -19 100 0 26 2 25
14 -15 8 -25 16 -70 19 -100z m-618 108 c-3 -8 -6 -5 -6 6 -1 11 2 17 5 13 3
-3 4 -12 1 -19z m371 -17 c26 -85 7 -93 -21 -8 -12 37 -13 47 -3 47 7 0 18
-17 24 -39z m-43 -212 c49 -137 78 -236 81 -274 l5 -60 -46 110 c-102 241
-117 286 -120 369 -2 43 -2 76 0 74 3 -2 39 -101 80 -219z m-315 179 c0 -18
-2 -20 -9 -8 -6 8 -7 18 -5 22 9 14 14 9 14 -14z m-26 -10 c3 -13 6 -42 6 -65
0 -76 52 -258 100 -353 25 -50 72 -181 66 -187 -6 -6 -63 89 -90 150 -15 32
-35 92 -46 135 -24 96 -80 330 -80 337 0 3 8 5 19 5 11 0 21 -9 25 -22z m66
-35 c0 -7 -4 -13 -10 -13 -5 0 -10 6 -10 14 0 8 -3 23 -6 33 -5 16 -4 16 10
-1 9 -11 16 -26 16 -33z m456 -113 c37 -165 53 -220 63 -220 13 0 22 190 11
235 -9 40 -14 142 -6 134 17 -17 57 -247 62 -357 6 -120 5 -125 -12 -112 -16
14 -17 10 -11 -72 4 -49 5 -88 3 -88 -3 0 -10 26 -16 58 -7 31 -43 165 -81
296 -38 132 -69 251 -69 265 l1 26 14 -25 c8 -14 26 -77 41 -140z m442 -60
c-3 -38 -5 -30 -19 55 -13 76 -14 106 -5 130 10 28 11 23 19 -55 4 -47 6 -105
5 -130z m56 133 c11 -42 10 -55 -6 -102 -10 -30 -18 -64 -19 -75 0 -21 -1 -21
-9 -1 -12 28 -12 183 0 190 6 3 10 16 10 27 0 32 10 16 24 -39z m-789 -278
c46 -148 83 -270 81 -272 -2 -3 -7 6 -11 19 -5 12 -22 54 -40 93 -89 194 -103
233 -110 295 -6 57 -14 102 -30 175 -15 64 35 -77 110 -310z m-125 219 c17
-36 30 -73 29 -82 -1 -18 -67 114 -68 136 -2 26 11 9 39 -54z m345 -20 c21
-100 17 -110 -11 -24 -25 81 -31 121 -14 104 6 -6 17 -41 25 -80z m-407 -19
c0 -34 -1 -36 -8 -15 -4 14 -8 41 -8 60 -1 28 1 31 8 15 5 -11 8 -38 8 -60z
m656 -40 c18 -14 44 -174 34 -210 -4 -16 -5 -48 -1 -70 3 -22 3 -38 1 -35 -3
3 -13 52 -22 110 -10 58 -23 130 -31 160 -7 30 -16 80 -19 110 l-5 55 15 -55
c8 -30 21 -59 28 -65z m-675 -130 c0 -11 -12 21 -25 70 -13 50 -23 99 -23 110
0 11 11 -20 24 -70 14 -49 24 -99 24 -110z m852 40 c0 -60 4 -137 8 -170 6
-44 4 -72 -7 -104 -13 -39 -16 -42 -26 -25 -12 20 -12 285 -1 383 11 87 25 40
26 -84z m78 -45 c0 -19 -9 -55 -19 -80 l-19 -45 0 70 c-1 39 2 108 6 155 l7
85 12 -75 c7 -41 13 -91 13 -110z m-411 -5 c44 -149 85 -316 79 -321 -11 -11
-60 132 -93 271 -47 202 -49 212 -37 200 5 -5 28 -73 51 -150z m-257 -49 c75
-182 149 -393 149 -423 0 -13 -6 -23 -14 -23 -9 0 -26 33 -45 86 -17 47 -31
88 -31 91 0 4 -29 97 -64 207 -68 213 -84 266 -66 231 5 -11 37 -87 71 -169z
m-197 99 c8 -32 13 -61 11 -63 -3 -4 -15 34 -31 103 -12 54 4 21 20 -40z m814
-50 l-1 -80 -7 60 c-11 87 -11 145 0 120 5 -11 8 -56 8 -100z m-758 50 c0 -5
-5 -3 -10 5 -5 8 -10 20 -10 25 0 6 5 3 10 -5 5 -8 10 -19 10 -25z m364 -75
l6 -35 -14 35 c-17 42 -20 58 -7 45 5 -6 12 -26 15 -45z m-290 -78 c25 -57 46
-107 45 -110 -1 -15 -98 184 -98 202 -1 27 0 24 53 -92z m495 -112 c0 -34 -1
-34 -19 17 -10 28 -21 86 -24 130 l-5 78 24 -95 c13 -52 24 -111 24 -130z
m-253 120 c7 -30 12 -56 10 -58 -5 -4 -31 79 -40 123 -11 54 16 -3 30 -65z
m-306 40 c10 0 84 -139 77 -146 -6 -6 -78 77 -87 101 -4 11 -10 36 -14 55 -5
28 -4 30 4 13 5 -13 14 -23 20 -23z m650 -55 c0 -29 -3 -36 -10 -25 -5 8 -10
33 -10 55 0 29 3 36 10 25 5 -8 10 -33 10 -55z m-281 -45 c26 -66 34 -101 57
-235 l5 -30 -15 26 c-9 15 -31 87 -51 160 -49 185 -48 207 4 79z m-352 -127
c20 -24 33 -46 29 -50 -3 -4 -13 2 -21 13 -29 36 -115 178 -115 189 0 5 16
-17 36 -49 19 -33 52 -79 71 -103z m387 -179 c5 -27 5 -26 -13 7 -36 66 -101
249 -101 282 1 23 16 -11 54 -114 29 -81 56 -159 60 -175z m125 141 c39 -317
39 -327 -5 -218 -28 69 -28 63 -8 63 13 0 15 6 10 33 -7 34 -36 262 -36 287 0
9 3 10 9 5 6 -6 19 -82 30 -170z m128 81 c5 -37 9 -46 24 -46 16 0 18 -5 13
-27 -12 -48 -45 -132 -55 -138 -5 -4 -9 50 -9 136 0 105 3 140 11 132 6 -6 14
-32 16 -57z m-501 -109 c26 -49 41 -86 35 -83 -20 12 -151 215 -151 233 0 4
16 -8 35 -27 19 -19 56 -74 81 -123z m-45 4 c30 -47 72 -103 91 -124 20 -21
41 -53 47 -70 11 -32 10 -31 -32 13 -112 121 -140 159 -163 226 -26 74 -29 89
-11 60 7 -10 37 -58 68 -105z m475 -76 c10 -71 10 -99 1 -130 -12 -40 -12 -39
-24 65 -6 58 -14 134 -18 170 l-5 65 16 -40 c9 -22 22 -80 30 -130z m11 98
c-3 -10 -5 -4 -5 12 0 17 2 24 5 18 2 -7 2 -21 0 -30z m-238 -102 c39 -96 52
-146 32 -125 -17 17 -89 224 -77 224 2 0 22 -45 45 -99z m140 -31 c-1 -17 -23
32 -33 70 -3 14 3 7 14 -15 11 -22 19 -47 19 -55z m120 33 c0 -61 -11 -52 -22
20 -4 28 -2 37 9 37 11 0 14 -14 13 -57z"/>
<path d="M2612 5340 c0 -19 2 -27 5 -17 2 9 2 25 0 35 -3 9 -5 1 -5 -18z"/>
<path d="M2675 6054 c-41 -15 -85 -50 -85 -67 0 -6 10 -1 23 11 13 12 44 29
70 38 26 9 49 20 53 25 7 13 -14 10 -61 -7z"/>
<path d="M2053 6018 c-41 -25 -44 -44 -4 -23 28 14 47 33 40 39 -2 2 -19 -6
-36 -16z"/>
<path d="M4987 5708 c-20 -4 -55 -17 -78 -28 -46 -24 -119 -87 -119 -104 0 -6
-27 -38 -61 -71 -34 -33 -88 -102 -122 -153 -40 -62 -63 -89 -68 -80 -6 9 -10
7 -15 -7 -4 -11 -24 -56 -45 -100 -41 -86 -79 -224 -79 -290 0 -22 -7 -49 -15
-59 -18 -23 -13 -69 23 -233 24 -115 41 -153 43 -100 0 16 2 18 7 7 4 -8 14
-15 22 -15 8 0 19 -15 24 -33 6 -21 14 -31 22 -28 7 3 16 0 20 -6 5 -7 12 -5
21 7 14 20 29 13 35 -18 4 -25 22 -23 26 3 2 14 9 20 19 16 8 -3 16 -6 17 -6
1 0 1 -17 -1 -37 -2 -21 0 -32 3 -25 3 6 12 12 19 12 7 0 15 9 18 20 6 24 20
26 41 5 20 -20 26 -19 26 6 0 18 2 19 15 9 10 -8 15 -9 15 -2 0 13 51 62 64
62 6 0 23 12 38 27 22 21 28 23 28 10 0 -9 5 -17 10 -17 6 0 10 8 10 18 0 10
10 26 22 36 12 10 41 37 66 60 l45 41 -7 -38 c-5 -24 -4 -37 2 -33 5 3 13 23
16 43 9 50 26 93 38 93 5 0 14 14 20 30 6 20 16 29 26 28 13 -2 19 10 28 54 6
31 15 65 19 75 3 10 11 71 16 136 5 65 16 157 25 205 17 92 15 176 -7 227 -7
17 -11 56 -10 89 3 59 3 59 -23 52 -16 -4 -26 -2 -26 4 0 7 -8 9 -20 5 -14 -5
-20 -2 -20 9 0 23 -25 19 -44 -6 -16 -23 -16 -23 -10 10 5 26 2 32 -13 32 -25
1 -57 26 -44 35 33 20 -6 35 -62 23z m48 -18 c-3 -5 -21 -10 -38 -10 -19 0
-50 -12 -77 -31 -25 -16 -58 -37 -75 -45 -30 -15 -30 -15 5 16 49 44 119 79
158 80 20 0 31 -4 27 -10z m-35 -65 c0 -8 -61 -37 -67 -32 -3 3 8 12 24 21 29
16 43 19 43 11z m45 -15 c-3 -5 -14 -10 -23 -10 -15 0 -15 2 -2 10 20 13 33
13 25 0z m-52 -58 c-3 -12 -9 -22 -14 -22 -14 0 -11 38 4 43 16 6 17 5 10 -21z
m51 -14 c-9 -18 -19 -28 -21 -21 -5 13 27 67 34 59 3 -2 -3 -19 -13 -38z m135
-20 c-1 -48 -2 -50 -9 -20 -7 30 -3 72 6 72 2 0 4 -24 3 -52z m-341 -2 c-15
-34 -36 -41 -30 -10 2 13 8 21 13 18 5 -3 9 0 9 5 0 6 4 11 10 11 6 0 5 -9 -2
-24z m383 -59 c-13 -13 -15 41 -3 70 5 13 8 8 10 -21 2 -21 -1 -43 -7 -49z
m-121 63 c0 -5 -4 -10 -10 -10 -5 0 -10 5 -10 10 0 6 5 10 10 10 6 0 10 -4 10
-10z m-90 -110 l-20 -45 6 49 c8 69 15 85 26 60 6 -14 3 -33 -12 -64z m-120
-46 c-18 -82 -19 -84 -14 -29 3 33 10 75 16 93 19 62 18 26 -2 -64z m90 89 c0
-7 -47 -163 -61 -203 -7 -18 -8 -7 -4 36 4 62 41 174 56 174 5 0 9 -3 9 -7z
m140 -65 c0 -32 -46 -198 -55 -198 -8 0 22 207 31 222 12 18 24 6 24 -24z
m-435 -144 c-36 -99 -77 -180 -55 -109 4 17 22 68 39 115 16 47 33 99 37 115
7 28 8 28 12 7 2 -13 -13 -70 -33 -128z m352 84 c-3 -7 -5 -2 -5 12 0 14 2 19
5 13 2 -7 2 -19 0 -25z m-47 -124 c-19 -99 -68 -283 -69 -259 -1 20 29 236 39
281 9 41 40 97 48 89 2 -2 -6 -52 -18 -111z m-216 -125 c-20 -118 -37 -215
-39 -217 -1 -2 -6 30 -9 71 -6 63 -3 89 23 187 33 128 51 183 58 177 2 -3 -13
-101 -33 -218z m145 66 c-18 -58 -34 -103 -36 -101 -3 2 10 59 29 126 18 66
34 112 36 101 2 -12 -11 -68 -29 -126z m276 64 c-5 -32 -12 -49 -21 -49 -17 0
-17 13 -3 81 9 42 13 49 21 35 5 -10 7 -39 3 -67z m-336 -13 c-9 -8 -10 -5 -5
14 3 14 7 34 7 45 1 11 4 5 6 -14 3 -19 -1 -39 -8 -45z m-22 22 c-3 -8 -6 -5
-6 6 -1 11 2 17 5 13 3 -3 4 -12 1 -19z m280 -20 c-3 -7 -5 -2 -5 12 0 14 2
19 5 13 2 -7 2 -19 0 -25z m98 -126 c-12 -62 -18 -24 -9 55 8 74 9 75 12 28 2
-27 0 -65 -3 -83z m-134 62 c-5 -21 -9 -30 -10 -19 -1 24 10 67 15 62 3 -2 0
-22 -5 -43z m-64 -6 c-3 -7 -5 -2 -5 12 0 14 2 19 5 13 2 -7 2 -19 0 -25z
m149 -78 c-9 -46 -18 -86 -21 -88 -12 -12 -13 9 -4 83 13 99 16 112 30 98 7
-7 5 -36 -5 -93z m-381 -98 c-14 -81 -30 -163 -35 -182 l-8 -35 -1 33 c-1 40
61 360 67 343 2 -6 -8 -78 -23 -159z m-91 114 c-3 -15 -8 -25 -11 -23 -2 3 -1
17 3 31 3 15 8 25 11 23 2 -3 1 -17 -3 -31z m-66 -104 c-21 -105 -38 -144 -38
-86 0 26 51 206 57 200 2 -1 -7 -53 -19 -114z m273 -2 c-21 -95 -39 -149 -40
-115 -1 22 36 182 45 197 14 22 12 -3 -5 -82z m-346 -17 c-10 -53 -18 -32 -9
24 4 26 10 40 12 30 2 -11 1 -35 -3 -54z m100 -140 c-3 -19 -9 -33 -12 -30 -3
3 -2 25 2 49 5 24 10 37 12 30 3 -7 2 -29 -2 -49z m435 -32 c-7 -31 -17 -63
-22 -71 -7 -11 -8 -8 -3 10 3 14 11 52 17 85 6 33 13 54 16 46 2 -7 -1 -39 -8
-70z m-103 27 c-3 -8 -6 -5 -6 6 -1 11 2 17 5 13 3 -3 4 -12 1 -19z m-530 -20
c-3 -7 -5 -2 -5 12 0 14 2 19 5 13 2 -7 2 -19 0 -25z m520 -30 c-3 -8 -6 -5
-6 6 -1 11 2 17 5 13 3 -3 4 -12 1 -19z m-420 -80 c-2 -13 -4 -5 -4 17 -1 22
1 32 4 23 2 -10 2 -28 0 -40z m543 27 c0 -8 -4 -15 -10 -15 -5 0 -7 7 -4 15 4
8 8 15 10 15 2 0 4 -7 4 -15z m-485 -134 c-13 -68 -22 -14 -11 64 l11 80 3
-55 c2 -30 0 -70 -3 -89z m304 -35 c-10 -11 -20 -18 -23 -15 -2 2 3 40 12 84
l17 80 6 -65 c5 -54 3 -68 -12 -84z m115 95 c3 -5 -1 -11 -9 -15 -9 -3 -15 0
-15 9 0 16 16 20 24 6z m-418 -169 c-11 -10 -15 4 -8 28 l7 25 3 -23 c2 -13 1
-26 -2 -30z m248 39 c3 -5 -1 -11 -9 -15 -9 -3 -15 0 -15 9 0 16 16 20 24 6z
m-206 -57 c-10 -10 -28 6 -28 24 0 15 1 15 17 -1 9 -9 14 -19 11 -23z"/>
<path d="M7036 4693 c-3 -21 -6 -54 -7 -73 l-1 -35 -11 28 c-27 69 -45 -12
-28 -128 12 -77 11 -89 -13 -191 -47 -195 -76 -277 -140 -394 -68 -123 -153
-304 -205 -435 -20 -51 -57 -115 -102 -175 -100 -134 -365 -420 -390 -420 -38
0 -89 28 -89 49 0 31 11 51 29 52 14 0 14 1 1 11 -13 9 -15 22 -7 87 13 124 5
330 -15 366 -10 17 -22 56 -28 88 -9 46 -15 57 -31 57 -15 0 -19 7 -19 38 0
36 -12 67 -22 60 -3 -1 -22 12 -43 30 -44 37 -67 40 -110 14 -20 -12 -37 -16
-50 -12 -18 7 -19 8 -2 15 9 4 17 11 17 16 0 15 -14 10 -42 -16 -15 -14 -31
-25 -36 -25 -5 0 -21 -9 -36 -21 -28 -22 -35 -59 -12 -59 17 0 21 -11 36 -96
10 -58 8 -70 -26 -185 -49 -169 -55 -185 -50 -131 5 53 -10 55 -24 3 -5 -21
-16 -43 -23 -49 -14 -12 -199 -18 -216 -7 -7 3 -18 1 -26 -5 -12 -10 -18 -10
-29 0 -12 9 -17 7 -28 -10 -7 -12 -34 -32 -59 -45 -25 -13 -51 -30 -57 -38
-17 -20 -52 -162 -52 -209 0 -21 -7 -50 -16 -64 -14 -20 -15 -30 -6 -50 17
-35 45 -42 192 -50 92 -5 130 -11 130 -19 0 -16 -63 -30 -68 -15 -5 13 -32 13
-32 0 0 -5 -16 -10 -35 -10 -39 0 -77 -32 -99 -83 l-14 -32 -1 48 c-2 87 -24
50 -51 -87 -8 -40 -9 -61 -1 -69 7 -7 12 -1 17 18 l7 29 9 -25 c8 -22 10 -22
19 -6 6 9 14 15 20 12 21 -14 6 -46 -41 -87 -53 -45 -79 -96 -80 -155 0 -31
-2 -32 -127 -81 -254 -98 -565 -180 -871 -230 -166 -26 -510 -23 -712 7 -205
31 -537 116 -669 173 -60 25 -78 16 -20 -11 121 -55 470 -148 661 -176 390
-57 681 -41 1093 61 220 54 431 120 575 179 46 19 66 23 68 15 10 -29 43 -50
80 -50 21 0 47 -7 59 -15 16 -11 22 -12 26 -2 3 9 9 9 24 0 14 -8 24 -8 31 -1
6 6 41 7 96 3 73 -6 86 -10 84 -24 -2 -12 -17 -17 -58 -19 -30 -2 -62 -9 -70
-17 -8 -7 -27 -16 -42 -19 -16 -3 -39 -8 -53 -11 -14 -3 -25 -11 -25 -18 0 -6
-18 -23 -40 -37 l-40 -24 0 -73 c0 -42 4 -73 10 -73 6 0 10 -9 10 -20 0 -15 6
-19 23 -17 18 2 23 -4 25 -30 4 -37 21 -44 29 -13 4 15 14 20 39 20 30 0 34
-3 34 -25 0 -31 17 -33 22 -3 3 21 8 23 63 20 89 -3 145 -12 145 -22 0 -5 6
-7 14 -4 8 3 17 0 21 -5 3 -6 11 -9 16 -6 5 4 12 -1 15 -10 6 -14 8 -14 25 1
18 17 23 16 89 -5 63 -21 85 -23 210 -19 120 3 140 1 140 -12 1 -13 2 -13 13
1 10 12 31 15 117 11 58 -2 128 -10 157 -18 28 -8 79 -14 112 -14 59 0 64 2
125 51 40 32 74 70 92 102 15 28 29 46 32 39 7 -22 20 -12 33 26 6 20 24 55
39 77 64 95 110 195 140 305 17 63 58 185 90 271 36 96 73 218 95 315 20 88
51 220 70 294 18 74 41 191 49 260 9 69 23 158 32 197 13 61 15 120 10 375 -9
458 -15 520 -54 593 -18 33 -36 82 -41 108 -9 49 -17 65 -26 55 -10 -10 17
-102 48 -163 36 -70 39 -95 57 -564 8 -216 8 -307 1 -314 -8 -8 -11 -6 -11 7
0 47 -29 -3 -69 -118 -24 -70 -45 -125 -47 -123 -3 2 3 35 12 73 45 194 84
498 66 516 -9 9 -14 5 -22 -13 -9 -20 -10 -16 -5 24 13 122 27 378 21 384 -18
18 -30 -28 -38 -144 -5 -71 -10 -132 -12 -138 -11 -26 -5 282 6 317 10 33 9
41 -2 48 -10 6 -15 28 -15 66 0 57 -18 85 -31 47 -3 -10 -12 -31 -19 -47 -12
-28 -13 -28 -20 -6 -7 21 1 167 11 203 3 9 1 17 -4 17 -5 0 -12 -17 -16 -37z
m-17 -170 c1 -13 -3 -23 -9 -23 -5 0 -10 19 -9 43 0 32 2 37 9 22 5 -11 9 -30
9 -42z m32 -144 l-7 -34 -13 38 c-7 22 -10 50 -5 70 l7 32 12 -36 c8 -22 10
-50 6 -70z m5 -94 c4 -17 -3 -53 -21 -103 -31 -85 -51 -120 -31 -51 25 83 30
129 13 129 -9 0 -19 -9 -22 -21 -15 -47 -15 -6 1 61 l16 72 19 -31 c10 -17 21
-42 25 -56z m51 -97 c-4 -40 -7 -91 -7 -113 -1 -37 -2 -38 -12 -15 -15 38 0
200 19 200 3 0 3 -33 0 -72z m-122 -62 c-9 -30 -21 -59 -27 -62 -7 -5 -9 -2
-6 7 3 8 13 38 23 66 24 68 31 61 10 -11z m61 -85 c-9 -64 -22 -112 -34 -129
-11 -15 -36 -60 -56 -99 -20 -40 -38 -73 -41 -73 -2 0 21 71 50 158 30 86 55
166 55 177 0 11 8 42 17 69 15 42 18 46 21 24 2 -14 -4 -72 -12 -127z m21 -38
c-3 -10 -5 -2 -5 17 0 19 2 27 5 18 2 -10 2 -26 0 -35z m54 -88 l-9 -40 -1 56
c-1 31 2 72 7 90 7 33 7 32 10 -16 1 -27 -1 -68 -7 -90z m-197 36 c-30 -82
-45 -89 -19 -9 21 62 35 92 41 85 3 -2 -7 -37 -22 -76z m137 -121 c-8 -20 -10
-12 -10 42 -1 88 13 123 17 43 2 -34 -2 -72 -7 -85z m-18 -47 c5 -4 17 3 27
17 l20 25 0 -29 c0 -16 -6 -34 -14 -40 -23 -18 -82 -188 -150 -431 -35 -126
-68 -248 -72 -270 -4 -22 -9 -35 -11 -29 -4 11 72 379 123 592 13 57 24 120
24 140 l-1 37 -25 -30 c-20 -23 -16 -11 18 55 l42 85 6 -57 c3 -31 9 -60 13
-65z m112 -4 c-25 -181 -81 -457 -91 -447 -6 7 61 400 91 536 15 66 15 22 0
-89z m-370 -48 c-51 -115 -102 -211 -111 -211 -6 0 11 40 86 194 39 81 73 146
76 143 2 -2 -20 -59 -51 -126z m75 -52 c-28 -90 -52 -168 -55 -174 -2 -5 -2
15 0 45 3 49 27 127 80 258 36 88 24 29 -25 -129z m-24 75 c-29 -98 -76 -193
-126 -254 -20 -25 -54 -75 -74 -112 -20 -38 -39 -68 -41 -68 -6 0 16 51 35 80
41 61 132 234 175 333 26 59 49 106 51 104 2 -1 -8 -39 -20 -83z m98 -196
c-20 -90 -42 -169 -48 -177 -6 -8 -21 -48 -32 -90 -23 -79 -225 -586 -240
-601 -5 -5 -10 6 -11 26 -1 23 3 34 13 34 16 0 25 19 106 235 103 273 188 530
188 567 0 40 -29 -36 -60 -154 -12 -48 -30 -65 -30 -30 0 44 140 388 148 363
2 -6 -13 -84 -34 -173z m-1059 152 c-3 -5 -17 -10 -31 -10 -14 0 -22 4 -19 10
3 6 17 10 31 10 14 0 22 -4 19 -10z m1181 -108 c-30 -148 -86 -333 -127 -423
-23 -49 -44 -88 -45 -86 -2 2 21 93 52 203 98 352 163 518 120 306z m-1296 75
c0 -7 -7 -22 -15 -33 -14 -18 -14 -18 -15 7 0 14 3 29 7 32 11 11 23 8 23 -6z
m167 -2 c9 -25 -4 -29 -17 -6 -7 15 -7 21 0 21 6 0 13 -7 17 -15z m-253 -19
c-10 -8 -21 -12 -24 -9 -3 2 4 11 14 19 11 7 22 12 25 9 2 -3 -4 -12 -15 -19z
m141 15 c3 -5 1 -12 -4 -15 -5 -3 -11 1 -15 9 -6 16 9 21 19 6z m85 -24 c0 -7
-7 -22 -16 -33 -14 -17 -15 -17 -10 -1 3 10 6 25 6 33 0 8 5 14 10 14 6 0 10
-6 10 -13z m-104 -68 c-26 -55 -36 -69 -36 -50 0 20 45 101 56 101 2 0 -7 -23
-20 -51z m132 -17 c-2 -57 -2 -57 -5 -9 -2 26 -8 47 -14 47 -5 0 -9 -6 -10
-12 0 -7 -11 -58 -24 -113 -20 -86 -24 -94 -26 -60 -2 22 -2 51 -1 63 2 36 60
154 72 147 5 -3 9 -32 8 -63z m-85 10 c-9 -27 -24 -54 -34 -60 -17 -11 -18
-10 -8 15 11 29 48 93 54 93 2 0 -4 -22 -12 -48z m-123 -66 c-7 -7 -10 8 -9
50 l1 59 10 -49 c6 -33 6 -52 -2 -60z m1456 -90 c-36 -169 -166 -570 -181
-555 -2 3 9 52 26 109 16 58 33 141 39 186 7 53 27 126 59 212 28 71 55 150
62 174 25 85 21 1 -5 -126z m-426 23 c-18 -69 -34 -102 -90 -184 -76 -113
-149 -252 -176 -337 -9 -32 -19 -56 -21 -54 -5 5 26 133 49 200 12 33 40 89
63 125 23 36 55 91 70 121 53 107 117 221 122 217 2 -3 -6 -42 -17 -88z m-941
7 c-12 -47 -6 -73 11 -46 7 10 9 -2 9 -40 0 -39 -9 -73 -29 -115 l-28 -60 5
70 c4 46 12 78 25 94 21 28 16 40 -8 20 -15 -12 -16 -12 -11 6 3 11 11 44 17
73 7 29 14 51 17 49 2 -3 -1 -26 -8 -51z m227 -111 c4 -132 -11 -84 -20 65 -5
74 -4 89 5 70 6 -14 13 -74 15 -135z m-259 103 c-3 -8 -6 -5 -6 6 -1 11 2 17
5 13 3 -3 4 -12 1 -19z m201 -327 c1 -2 9 -1 17 2 19 8 32 -59 16 -84 -16 -27
-14 -104 4 -119 17 -14 20 -30 4 -30 -22 0 -39 67 -32 129 4 43 2 61 -6 61 -6
0 -11 -6 -12 -12 0 -7 -7 14 -14 47 -17 77 -19 210 -2 294 l12 66 6 -175 c3
-96 6 -177 7 -179z m-88 293 c0 -14 -4 -23 -9 -20 -5 3 -7 15 -4 26 7 28 13
25 13 -6z m876 -20 c-8 -21 -15 -34 -15 -28 -1 15 20 76 25 71 2 -2 -2 -21
-10 -43z m-130 -55 c-20 -35 -36 -60 -36 -55 0 13 62 127 67 122 2 -2 -12 -32
-31 -67z m545 -49 c-6 -45 -24 -132 -40 -194 -16 -61 -41 -167 -56 -236 -37
-169 -58 -243 -116 -392 -27 -70 -64 -182 -83 -250 -40 -148 -57 -191 -63
-165 -3 10 -10 16 -17 14 -9 -4 -12 18 -11 86 2 59 6 92 14 95 6 2 20 20 30
40 31 61 171 482 181 542 4 30 38 142 74 249 36 106 71 218 77 247 17 77 22
60 10 -36z m-375 -7 c-8 -15 -15 -22 -16 -15 0 17 20 55 27 49 2 -3 -2 -18
-11 -34z m194 -68 c-12 -53 -24 -94 -27 -91 -3 2 5 48 18 100 12 53 25 94 27
91 3 -2 -5 -48 -18 -100z m-1143 58 c-3 -10 -5 -4 -5 12 0 17 2 24 5 18 2 -7
2 -21 0 -30z m694 9 c-5 -10 -25 -37 -44 -59 -18 -22 -66 -105 -106 -184 -41
-79 -81 -152 -89 -161 -16 -19 -79 -24 -114 -10 -16 7 -16 9 5 32 204 224 262
289 303 343 48 63 66 79 45 39z m198 -19 c-27 -82 -144 -301 -155 -290 -2 2
25 75 61 163 35 87 64 153 65 147 0 -21 21 -15 27 7 3 12 8 19 10 16 3 -3 -1
-22 -8 -43z m291 -3 c0 -11 -4 -20 -9 -20 -5 0 -7 9 -4 20 3 11 7 20 9 20 2 0
4 -9 4 -20z m-1229 -56 c-5 -16 -19 -65 -32 -109 -22 -76 -39 -114 -39 -86 0
24 32 136 52 184 22 52 34 58 19 11z m-111 -11 c-11 -17 -11 -17 -6 0 3 10 6
24 7 30 0 9 2 9 5 0 3 -7 0 -20 -6 -30z m357 -10 c-3 -10 -5 -4 -5 12 0 17 2
24 5 18 2 -7 2 -21 0 -30z m574 -25 c-16 -35 -43 -108 -61 -163 -18 -55 -47
-134 -65 -175 -17 -41 -36 -86 -42 -100 -20 -47 -3 70 22 155 32 107 149 345
170 345 2 0 -9 -28 -24 -62z m204 -54 c-34 -145 -87 -336 -91 -331 -2 2 21
101 51 220 30 118 55 219 55 223 0 4 2 5 5 2 3 -3 -6 -54 -20 -114z m-918 74
c-3 -7 -5 -2 -5 12 0 14 2 19 5 13 2 -7 2 -19 0 -25z m548 -158 c-30 -91 -55
-170 -55 -177 0 -7 -7 -13 -15 -13 -19 0 -20 -3 14 82 15 40 36 98 46 128 21
67 57 152 61 147 2 -1 -21 -77 -51 -167z m266 47 c-35 -93 -73 -178 -58 -126
3 9 15 48 26 85 20 64 62 157 68 150 2 -2 -15 -51 -36 -109z m-1061 93 c0 -5
-5 -10 -11 -10 -5 0 -7 5 -4 10 3 6 8 10 11 10 2 0 4 -4 4 -10z m27 -22 c-3
-7 -5 -2 -5 12 0 14 2 19 5 13 2 -7 2 -19 0 -25z m354 -78 l-9 -45 -1 61 c-1
33 2 64 7 68 11 12 13 -34 3 -84z m969 -11 c-11 -46 -37 -132 -56 -191 -29
-88 -39 -108 -55 -108 -16 0 -18 3 -10 19 6 10 23 65 40 122 31 111 93 269 98
252 2 -6 -5 -48 -17 -94z m-1590 79 c0 -7 -5 -20 -10 -28 -8 -12 -10 -9 -10
13 0 15 5 27 10 27 6 0 10 -6 10 -12z m100 9 c0 -2 -11 -30 -25 -63 l-26 -59
7 55 c6 50 5 53 -10 41 -17 -14 -19 -12 -10 13 5 13 64 25 64 13z m118 -38
c-6 -16 -12 -28 -15 -26 -7 7 8 57 18 57 4 0 3 -14 -3 -31z m46 -4 c-4 -8 -8
-15 -10 -15 -2 0 -4 7 -4 15 0 8 4 15 10 15 5 0 7 -7 4 -15z m223 -77 c-14
-157 -34 -189 -29 -46 3 104 6 118 23 118 9 0 10 -20 6 -72z m826 -158 c-46
-184 -62 -232 -86 -265 -47 -61 -47 -61 -31 -9 8 27 17 71 20 98 3 43 141 412
150 404 1 -2 -22 -105 -53 -228z m147 169 c-7 -24 -24 -109 -39 -189 -24 -128
-32 -151 -62 -191 -19 -26 -39 -55 -45 -65 -15 -25 87 331 121 424 30 79 43
91 25 21z m-1526 -44 c-24 -64 -29 -48 -7 21 10 32 19 50 21 41 2 -10 -4 -38
-14 -62z m417 -35 l-19 -75 6 70 c2 39 10 76 16 84 17 22 17 0 -3 -79z m166
58 c-3 -7 -5 -2 -5 12 0 14 2 19 5 13 2 -7 2 -19 0 -25z m890 -10 c-3 -8 -6
-5 -6 6 -1 11 2 17 5 13 3 -3 4 -12 1 -19z m-1023 -80 c-5 -60 -12 -92 -25
-109 l-19 -24 6 35 c12 75 37 190 41 187 2 -2 0 -42 -3 -89z m51 -66 c-3 -9
-9 -12 -14 -6 -5 5 -3 45 3 89 l11 80 3 -74 c2 -41 0 -81 -3 -89z m167 104
c-9 -20 -10 -20 -17 6 -9 34 4 58 17 33 7 -11 7 -25 0 -39z m579 -23 c-10 -27
-27 -68 -36 -93 -23 -58 -31 -67 -40 -42 -3 13 3 38 16 64 23 46 69 118 75
118 2 0 -5 -21 -15 -47z m216 25 c-3 -8 -6 -5 -6 6 -1 11 2 17 5 13 3 -3 4
-12 1 -19z m-217 -118 c-28 -87 -47 -126 -57 -116 -2 2 15 52 38 110 23 58 44
105 45 103 2 -2 -10 -45 -26 -97z m269 -54 c-11 -50 -25 -95 -31 -101 -7 -7
-8 -1 -4 20 3 17 10 57 15 90 6 33 13 78 17 100 l7 40 8 -29 c6 -20 1 -61 -12
-120z m-868 90 c15 -13 33 -26 39 -28 8 -2 9 -16 5 -38 -5 -26 -20 -45 -57
-73 -36 -28 -48 -34 -44 -20 2 10 8 55 12 101 4 45 9 82 11 82 3 0 18 -11 34
-24z m-475 -64 c-19 -70 -19 -72 -7 -72 5 0 17 23 26 50 9 28 19 50 21 50 3 0
2 -24 -1 -52 l-5 -53 26 50 c23 45 24 47 17 15 -4 -19 -7 -50 -7 -68 l1 -33
-46 7 c-69 10 -72 18 -42 108 29 89 40 88 17 -2z m529 68 c3 -5 1 -10 -4 -10
-6 0 -11 5 -11 10 0 6 2 10 4 10 3 0 8 -4 11 -10z m-849 -51 c-15 -34 -15 -34
-9 -4 7 35 13 48 20 42 2 -3 -3 -20 -11 -38z m1033 15 c37 -8 37 -10 7 -48
-27 -32 -33 -30 -69 27 -17 27 -17 27 7 27 13 0 38 -3 55 -6z m-412 -36 c-3
-8 -6 -5 -6 6 -1 11 2 17 5 13 3 -3 4 -12 1 -19z m336 -13 c-1 -11 -8 -47 -16
-80 l-15 -60 -1 83 c-1 74 1 83 17 80 10 -2 16 -12 15 -23z m-72 -12 c-8 -15
-10 -15 -11 -2 0 17 10 32 18 25 2 -3 -1 -13 -7 -23z m279 5 c-1 -24 -37 -75
-46 -65 -5 5 35 87 43 87 2 0 3 -10 3 -22z m540 -223 c-44 -131 -82 -240 -86
-244 -4 -3 -5 3 -2 14 3 11 15 54 26 95 12 42 32 119 46 171 13 52 39 120 58
151 18 31 34 55 35 54 2 -1 -33 -110 -77 -241z m-1537 215 c-5 -19 -23 -39
-23 -25 0 9 20 45 24 45 2 0 2 -9 -1 -20z m62 1 c-3 -11 -1 -22 5 -26 5 -3 10
-1 10 6 0 7 2 10 5 7 12 -11 -11 -43 -31 -44 -20 0 -20 1 -6 38 15 39 28 53
17 19z m-322 -46 c25 -17 19 -19 -17 -5 -15 5 -26 17 -26 28 0 27 14 37 18 13
2 -11 13 -28 25 -36z m552 -30 c-10 -36 -21 -63 -24 -60 -13 8 -3 94 13 110 9
9 16 22 17 28 0 8 2 8 6 -1 3 -7 -3 -42 -12 -77z m580 28 c-28 -62 -35 -73
-35 -54 0 26 43 111 56 111 2 0 -8 -26 -21 -57z m-1120 27 c3 -5 1 -10 -4 -10
-6 0 -11 5 -11 10 0 6 2 10 4 10 3 0 8 -4 11 -10z m115 -20 c0 -20 -5 -30 -15
-30 -18 0 -18 1 -5 34 13 34 20 33 20 -4z m479 -52 c-23 -63 -36 -64 -24 -2 3
19 13 38 21 41 7 3 14 15 15 27 0 11 3 15 6 8 3 -7 -5 -41 -18 -74z m111 60
c-1 -13 -12 -43 -25 -68 -26 -48 -27 -41 -4 53 11 41 29 50 29 15z m339 -80
c-18 -43 -20 -28 -6 38 11 52 12 55 15 25 2 -18 -2 -46 -9 -63z m228 70 c-3
-8 -6 -5 -6 6 -1 11 2 17 5 13 3 -3 4 -12 1 -19z m-376 -51 l-21 -32 0 29 c0
35 33 79 38 52 2 -9 -6 -31 -17 -49z m-650 35 c-11 -21 -61 -28 -61 -8 0 9 7
12 19 9 10 -3 22 0 25 6 12 19 28 13 17 -7z m1529 -4 c-1 -17 -28 -53 -35 -46
-8 7 16 58 27 58 4 0 8 -6 8 -12z m-513 -20 c-3 -8 -6 -5 -6 6 -1 11 2 17 5
13 3 -3 4 -12 1 -19z m-77 -109 c-54 -150 -62 -170 -66 -167 -3 4 30 145 47
196 12 39 48 96 55 89 3 -2 -14 -55 -36 -118z m-414 75 c-5 -13 -10 -14 -18
-6 -6 6 -8 18 -4 28 5 13 10 14 18 6 6 -6 8 -18 4 -28z m645 -30 c-10 -32 -27
-78 -39 -101 -34 -66 -71 -168 -112 -313 -53 -187 -114 -352 -118 -319 -4 38
201 681 237 739 19 32 43 61 47 57 2 -2 -5 -30 -15 -63z m-565 4 c-4 -29 -12
-59 -17 -67 -8 -13 -9 -12 -5 4 2 11 7 41 11 68 3 26 9 47 12 47 3 0 2 -23 -1
-52z m401 20 c-3 -8 -6 -5 -6 6 -1 11 2 17 5 13 3 -3 4 -12 1 -19z m-614 -8
c-3 -12 -8 -19 -11 -16 -5 6 5 36 12 36 2 0 2 -9 -1 -20z m342 -42 c-4 -29
-11 -62 -16 -73 -7 -17 -8 -16 -8 8 -1 31 18 117 26 117 3 0 2 -24 -2 -52z
m486 -39 c-15 -46 -49 -127 -73 -179 -25 -52 -58 -139 -73 -193 -16 -53 -30
-95 -32 -93 -10 9 95 346 107 346 4 0 27 47 50 105 23 58 44 104 46 102 2 -2
-9 -41 -25 -88z m-1180 54 c-8 -15 -10 -15 -11 -2 0 17 10 32 18 25 2 -3 -1
-13 -7 -23z m612 7 c-3 -12 -8 -19 -11 -16 -5 6 5 36 12 36 2 0 2 -9 -1 -20z
m838 -17 c-10 -17 -10 -16 -11 3 0 23 13 41 18 25 2 -6 -1 -18 -7 -28z m-1335
-24 l-15 -34 5 30 c8 44 16 62 21 49 2 -7 -3 -27 -11 -45z m264 2 c-28 -56
-35 -52 -8 4 12 24 23 43 26 41 2 -2 -6 -22 -18 -45z m964 -49 c-26 -45 -49
-80 -52 -78 -5 5 62 141 81 165 6 7 13 9 14 4 2 -5 -18 -46 -43 -91z m-1487
82 c-3 -3 -12 -4 -19 -1 -8 3 -5 6 6 6 11 1 17 -2 13 -5z m630 -16 c-3 -8 -6
-5 -6 6 -1 11 2 17 5 13 3 -3 4 -12 1 -19z m230 0 c-3 -8 -6 -5 -6 6 -1 11 2
17 5 13 3 -3 4 -12 1 -19z m-795 -20 c-15 -15 -26 -4 -18 18 5 13 9 15 18 6 9
-9 9 -15 0 -24z m294 -4 c-4 -14 -9 -24 -12 -21 -3 2 -2 17 2 31 3 15 9 25 11
22 3 -3 2 -17 -1 -32z m409 -40 c-3 -19 -10 -34 -15 -34 -14 0 -12 37 3 79 10
30 12 32 15 11 2 -12 1 -38 -3 -56z m131 35 c-4 -23 -13 -53 -22 -68 l-15 -26
6 35 c8 41 27 100 33 100 3 0 2 -19 -2 -41z m167 -31 c-3 -36 -17 -85 -31
-112 -13 -27 -39 -92 -58 -143 -18 -51 -44 -114 -57 -140 -13 -27 -39 -90 -57
-141 -18 -51 -35 -91 -37 -88 -9 9 72 259 122 376 29 69 68 167 87 217 18 51
34 93 35 93 2 0 0 -28 -4 -62z m116 18 c-6 -21 -12 -36 -14 -34 -3 2 0 21 6
42 6 21 12 36 14 34 3 -2 0 -21 -6 -42z m-1237 12 c-7 -7 -12 -8 -12 -2 0 14
12 26 19 19 2 -3 -1 -11 -7 -17z m1615 -10 c-3 -7 -5 -2 -5 12 0 14 2 19 5 13
2 -7 2 -19 0 -25z m-1091 -24 c-16 -30 -21 -17 -10 24 4 15 10 20 16 14 6 -6
4 -20 -6 -38z m137 21 c-3 -9 -8 -14 -10 -11 -3 3 -2 9 2 15 9 16 15 13 8 -4z
m772 -58 c-9 -28 -34 -81 -56 -117 -61 -103 -97 -199 -139 -368 -55 -222 -90
-312 -55 -140 28 133 116 430 157 528 24 57 102 174 106 160 2 -6 -4 -34 -13
-63z m-659 27 c-4 -14 -9 -24 -12 -21 -3 2 -2 17 2 31 3 15 9 25 11 22 3 -3 2
-17 -1 -32z m-184 -23 c-7 -19 -10 -20 -20 -9 -9 11 -8 20 6 39 13 18 17 20
20 8 1 -8 -1 -25 -6 -38z m-395 -8 c-3 -10 -5 -2 -5 17 0 19 2 27 5 18 2 -10
2 -26 0 -35z m1338 -56 c-19 -53 -44 -133 -55 -178 -12 -46 -30 -99 -40 -118
l-19 -36 6 60 c7 82 36 172 91 282 25 51 48 91 49 89 2 -2 -12 -46 -32 -99z
m-866 10 c-12 -67 -29 -81 -29 -26 0 32 27 105 36 97 3 -3 -1 -35 -7 -71z
m900 -78 c-17 -57 -35 -108 -40 -113 -24 -26 -19 16 16 124 49 150 69 140 24
-11z m-804 -25 c-14 -46 -28 -84 -32 -84 -13 0 6 118 29 175 22 59 23 59 26
26 2 -19 -8 -71 -23 -117z m398 104 c-4 -29 -3 -39 5 -34 16 10 16 7 -15 -76
l-27 -73 -7 39 c-5 29 0 59 18 113 14 40 26 73 28 73 2 0 1 -19 -2 -42z m82
-133 c-30 -94 -54 -178 -55 -187 0 -9 -4 -19 -9 -22 -18 -11 33 175 91 332 40
107 25 42 -27 -123z m-1074 122 c-13 -13 -15 1 -4 30 7 17 8 17 11 -1 2 -10
-1 -23 -7 -29z m155 -13 c-19 -19 -21 -2 -4 29 11 19 13 20 16 5 2 -10 -4 -25
-12 -34z m1301 14 c-3 -8 -6 -5 -6 6 -1 11 2 17 5 13 3 -3 4 -12 1 -19z
m-1600 -10 c-3 -8 -6 -5 -6 6 -1 11 2 17 5 13 3 -3 4 -12 1 -19z m100 0 c-3
-8 -6 -5 -6 6 -1 11 2 17 5 13 3 -3 4 -12 1 -19z m240 0 c-3 -8 -6 -5 -6 6 -1
11 2 17 5 13 3 -3 4 -12 1 -19z m120 0 c-3 -8 -6 -5 -6 6 -1 11 2 17 5 13 3
-3 4 -12 1 -19z m63 -8 c-6 -11 -12 -20 -14 -20 -2 0 -2 9 1 20 3 11 9 20 15
20 5 0 4 -9 -2 -20z m881 -42 c-15 -35 -38 -91 -50 -126 -13 -34 -28 -65 -32
-68 -14 -8 -12 -2 30 110 45 119 58 146 71 146 5 0 -3 -28 -19 -62z m-975 -9
c-6 -64 -25 -115 -26 -71 0 12 -4 22 -10 22 -5 0 -10 7 -10 15 0 16 39 95 47
95 3 0 3 -27 -1 -61z m-166 47 c0 -3 -4 -8 -10 -11 -5 -3 -10 -1 -10 4 0 6 5
11 10 11 6 0 10 -2 10 -4z m596 -32 c-4 -14 -9 -24 -12 -21 -3 2 -2 17 2 31 3
15 9 25 11 22 3 -3 2 -17 -1 -32z m-826 -15 c0 -6 -4 -7 -10 -4 -5 3 -10 11
-10 16 0 6 5 7 10 4 6 -3 10 -11 10 -16z m130 11 c0 -5 -5 -10 -11 -10 -5 0
-7 5 -4 10 3 6 8 10 11 10 2 0 4 -4 4 -10z m905 -22 c-4 -17 -14 -38 -21 -46
-18 -17 -18 -11 2 38 19 48 28 52 19 8z m-955 1 c0 -11 -4 -17 -10 -14 -5 3
-10 13 -10 21 0 8 5 14 10 14 6 0 10 -9 10 -21z m200 -24 c0 -25 -3 -45 -8
-45 -4 0 -6 20 -4 45 2 25 6 45 8 45 2 0 4 -20 4 -45z m-300 -29 c0 -51 -6
-43 -14 19 -5 36 -4 46 3 35 6 -8 11 -33 11 -54z m257 42 c-3 -8 -6 -5 -6 6
-1 11 2 17 5 13 3 -3 4 -12 1 -19z m-327 5 c-1 -5 -7 -19 -14 -32 -11 -19 -14
-21 -19 -7 -8 21 2 46 19 46 8 0 14 -3 14 -7z m651 -59 c8 -15 5 -52 -11 -139
-11 -66 -23 -121 -25 -123 -4 -5 4 186 12 268 4 36 8 54 10 40 2 -14 9 -34 14
-46z m54 -54 c-20 -96 -35 -124 -35 -65 0 41 25 159 37 179 16 24 15 -32 -2
-114z m-406 43 c-1 -62 -12 -114 -20 -98 -8 17 2 155 12 155 5 0 9 -26 8 -57z
m490 -85 c-17 -68 -36 -127 -41 -133 -13 -12 -8 10 34 165 17 63 33 109 35
103 2 -6 -10 -67 -28 -135z m-772 70 c-2 -13 -4 -5 -4 17 -1 22 1 32 4 23 2
-10 2 -28 0 -40z m223 40 c0 -7 -5 -20 -10 -28 -8 -12 -10 -9 -10 13 0 15 5
27 10 27 6 0 10 -6 10 -12z m-341 -25 c-5 -14 -9 -40 -7 -56 2 -17 -2 -32 -9
-34 -18 -6 -17 39 1 82 17 41 30 48 15 8z m1102 4 c-10 -9 -11 -8 -5 6 3 10 9
15 12 12 3 -3 0 -11 -7 -18z m130 -77 c-10 -61 -51 -168 -51 -132 0 16 39 192
46 212 13 32 15 -11 5 -80z m213 -54 c-46 -136 -71 -181 -39 -69 22 74 76 216
81 210 2 -2 -17 -65 -42 -141z m263 122 c-3 -8 -6 -5 -6 6 -1 11 2 17 5 13 3
-3 4 -12 1 -19z m-1048 -15 c0 -10 -8 -43 -19 -73 -17 -53 -18 -53 -19 -20 -1
58 11 110 25 110 8 0 14 -8 13 -17z m-142 -15 c-3 -8 -6 -5 -6 6 -1 11 2 17 5
13 3 -3 4 -12 1 -19z m634 -123 c-22 -60 -40 -108 -40 -105 -3 28 24 133 46
182 42 94 38 47 -6 -77z m543 101 c-3 -15 -8 -25 -11 -23 -2 3 -1 17 3 31 3
15 8 25 11 23 2 -3 1 -17 -3 -31z m-1527 -23 c-3 -10 -5 -2 -5 17 0 19 2 27 5
18 2 -10 2 -26 0 -35z m186 -40 c5 -77 4 -83 -14 -83 -15 0 -19 7 -19 35 0 34
19 139 25 133 1 -2 5 -40 8 -85z m342 60 c-3 -16 -14 -84 -25 -153 -11 -69
-23 -138 -27 -155 l-7 -30 -6 38 c-4 23 0 69 11 120 10 45 23 110 30 145 6 34
16 62 20 62 5 0 6 -12 4 -27z m-448 -15 c-3 -7 -5 -2 -5 12 0 14 2 19 5 13 2
-7 2 -19 0 -25z m240 -52 c-9 -28 -20 -64 -25 -81 l-9 -30 -13 27 c-9 19 -10
31 -3 40 6 7 13 31 17 53 13 73 15 77 33 59 15 -15 15 -20 0 -68z m-370 12
c-2 -13 -4 -3 -4 22 0 25 2 35 4 23 2 -13 2 -33 0 -45z m943 1 c-17 -41 -22
-31 -8 17 6 21 13 33 15 26 3 -7 -1 -26 -7 -43z m565 -26 c-21 -76 -47 -144
-52 -139 -7 7 26 145 43 182 24 51 29 27 9 -43z m-1198 5 c-2 -13 -4 -3 -4 22
0 25 2 35 4 23 2 -13 2 -33 0 -45z m-367 -35 c0 -2 -11 -3 -25 -3 -22 0 -25 3
-19 28 12 55 15 57 30 17 7 -22 14 -41 14 -42z m845 25 c-4 -29 -11 -57 -16
-62 -12 -13 -12 2 3 63 15 66 22 65 13 -1z m772 30 c-3 -8 -6 -5 -6 6 -1 11 2
17 5 13 3 -3 4 -12 1 -19z m-1687 -24 c0 -14 -4 -23 -10 -19 -5 3 -10 15 -10
26 0 10 5 19 10 19 6 0 10 -12 10 -26z m517 -16 c-3 -8 -6 -5 -6 6 -1 11 2 17
5 13 3 -3 4 -12 1 -19z m300 -28 c-3 -27 -13 -62 -22 -77 -18 -32 -19 -37 5
75 15 66 25 68 17 2z m-670 8 c-3 -7 -5 -2 -5 12 0 14 2 19 5 13 2 -7 2 -19 0
-25z m1528 -121 c-14 -56 -34 -114 -43 -128 -9 -14 -31 -48 -49 -75 -41 -65
-81 -112 -104 -125 -15 -8 -12 5 16 72 19 44 35 82 35 84 0 2 6 10 14 18 8 8
28 52 45 98 25 66 30 75 25 42 -13 -94 28 -24 68 117 26 90 20 1 -7 -103z
m-1390 124 c3 -5 1 -12 -5 -16 -5 -3 -10 1 -10 9 0 18 6 21 15 7z m420 -51
c-4 -28 -9 -49 -12 -47 -2 3 -1 28 3 56 4 28 9 50 11 47 3 -3 2 -28 -2 -56z
m-198 28 c-3 -8 -6 -5 -6 6 -1 11 2 17 5 13 3 -3 4 -12 1 -19z m59 -233 c-23
-88 -23 -89 -36 -62 -12 24 -11 42 4 120 9 51 25 117 34 147 l17 55 2 -85 c2
-63 -3 -108 -21 -175z m199 213 c-11 -73 -17 -100 -21 -95 -6 6 16 137 23 137
3 0 2 -19 -2 -42z m675 -84 c-29 -105 -74 -343 -67 -351 8 -7 23 24 46 95 13
39 26 71 27 69 8 -7 -16 -171 -26 -181 -11 -11 -108 -11 -142 0 -24 7 -23 31
2 44 11 6 20 16 20 23 1 7 7 26 15 42 13 28 14 29 9 4 -3 -15 -1 -30 5 -33 6
-4 11 -4 11 -1 0 4 16 70 36 148 32 128 81 263 91 254 2 -3 -10 -53 -27 -113z
m-275 59 c-6 -36 -82 -252 -92 -263 -2 -3 -2 9 2 25 9 40 88 275 93 275 1 0 0
-17 -3 -37z m172 15 c-3 -8 -6 -5 -6 6 -1 11 2 17 5 13 3 -3 4 -12 1 -19z
m-937 3 c0 -6 -4 -13 -10 -16 -5 -3 -10 1 -10 9 0 9 5 16 10 16 6 0 10 -4 10
-9z m97 -13 c-3 -8 -6 -5 -6 6 -1 11 2 17 5 13 3 -3 4 -12 1 -19z m40 0 c-3
-8 -6 -5 -6 6 -1 11 2 17 5 13 3 -3 4 -12 1 -19z m984 -122 c-45 -137 -67
-164 -37 -47 16 61 73 198 80 190 2 -2 -17 -67 -43 -143z m-641 22 c-27 -128
-39 -152 -40 -78 0 70 41 203 57 186 3 -3 -5 -51 -17 -108z m605 37 c-22 -60
-28 -54 -8 8 9 26 18 45 21 43 3 -3 -3 -26 -13 -51z m-966 -29 c-6 -37 -14
-65 -16 -62 -3 3 0 35 7 71 7 36 14 64 17 62 2 -3 -1 -35 -8 -71z m198 42 c-3
-8 -6 -5 -6 6 -1 11 2 17 5 13 3 -3 4 -12 1 -19z m-387 -23 c0 -25 -28 -24
-33 0 -2 14 -2 27 1 30 8 7 32 -15 32 -30z m357 3 c-3 -8 -6 -5 -6 6 -1 11 2
17 5 13 3 -3 4 -12 1 -19z m494 -14 c-9 -28 -9 -29 -10 -3 -1 14 2 29 6 32 11
12 13 2 4 -29z m-974 -56 c-2 -13 -4 -5 -4 17 -1 22 1 32 4 23 2 -10 2 -28 0
-40z m1029 -69 c-32 -155 -35 -169 -26 -174 5 -3 20 28 34 67 27 75 28 58 4
-54 l-10 -48 -121 7 c-67 3 -124 7 -126 9 -5 4 28 181 39 207 13 32 11 10 -5
-63 -19 -88 -19 -113 4 -127 22 -14 16 -26 86 171 l28 79 20 -24 c17 -21 18
-33 12 -106 -4 -52 -3 -83 3 -83 5 0 13 17 16 38 10 53 58 223 63 219 2 -2 -8
-55 -21 -118z m-1095 68 c-8 -8 -11 -5 -11 9 0 27 14 41 18 19 2 -9 -1 -22 -7
-28z m139 23 c0 -5 -4 -10 -10 -10 -5 0 -10 5 -10 10 0 6 5 10 10 10 6 0 10
-4 10 -10z m44 -5 c-4 -8 -8 -15 -10 -15 -2 0 -4 7 -4 15 0 8 4 15 10 15 5 0
7 -7 4 -15z m-221 -42 c-3 -27 -12 -61 -19 -78 -12 -27 -13 -24 -8 40 7 74 10
85 24 85 6 0 7 -21 3 -47z m888 5 c-4 -35 -6 -38 -9 -15 -3 26 3 57 10 57 2 0
1 -19 -1 -42z m86 10 c-3 -8 -6 -5 -6 6 -1 11 2 17 5 13 3 -3 4 -12 1 -19z
m-810 -20 c-3 -8 -6 -5 -6 6 -1 11 2 17 5 13 3 -3 4 -12 1 -19z m471 -36 c23
4 22 -67 -3 -122 -21 -47 -32 -50 -45 -14 -14 36 -12 69 8 138 15 56 17 58 20
28 2 -24 8 -32 20 -30z m-108 -25 c-7 -17 -9 -10 -9 28 1 43 2 46 9 22 5 -16
5 -38 0 -50z m256 34 c-7 -48 -25 -96 -32 -89 -5 6 28 128 35 128 2 0 1 -18
-3 -39z m181 7 c-3 -8 -6 -5 -6 6 -1 11 2 17 5 13 3 -3 4 -12 1 -19z m-940
-70 c-2 -13 -4 -3 -4 22 0 25 2 35 4 23 2 -13 2 -33 0 -45z m320 40 c-3 -8 -6
-5 -6 6 -1 11 2 17 5 13 3 -3 4 -12 1 -19z m32 -32 c-9 -8 -10 -7 -5 7 3 10 7
26 7 35 1 9 4 6 6 -7 3 -13 -1 -28 -8 -35z m123 -8 c6 -68 -5 -96 -28 -77 -8
6 -14 20 -14 31 0 30 22 108 30 108 4 0 10 -28 12 -62z m239 -29 c23 -32 24
-39 4 -39 -22 0 -49 65 -39 97 l8 28 4 -30 c2 -16 12 -41 23 -56z m-628 4 c-3
-7 -10 -13 -15 -13 -6 0 -7 7 -4 16 3 9 6 23 7 32 0 13 2 13 8 -3 5 -11 6 -26
4 -32z m75 16 c-2 -6 -8 -10 -13 -10 -5 0 -11 4 -13 10 -2 6 4 11 13 11 9 0
15 -5 13 -11z m52 -12 c0 -13 -7 -32 -15 -43 -14 -19 -14 -19 -15 1 0 30 11
65 21 65 5 0 9 -10 9 -23z m94 -31 c-3 -21 -8 -35 -11 -32 -2 2 -1 20 3 40 3
21 8 35 11 32 2 -2 1 -20 -3 -40z m520 -28 l7 -66 -147 -1 c-130 -2 -154 1
-210 21 -35 13 -64 28 -64 35 0 7 5 13 10 13 6 0 10 -4 10 -10 0 -15 92 -8 98
8 3 9 10 3 18 -17 16 -39 40 -40 62 -1 9 16 22 30 28 30 7 0 14 10 18 23 6 21
7 21 26 -10 22 -37 35 -40 63 -15 16 13 19 14 15 2 -6 -17 8 -50 22 -50 5 0
14 25 21 55 7 30 13 54 14 53 2 -2 6 -33 9 -70z m-857 40 c-3 -8 -6 -5 -6 6
-1 11 2 17 5 13 3 -3 4 -12 1 -19z m376 -21 c-3 -20 -10 -37 -14 -37 -8 0 -5
30 7 69 8 26 13 5 7 -32z m57 15 c0 -15 -2 -15 -10 -2 -13 20 -13 33 0 25 6
-3 10 -14 10 -23z m-383 -14 c-3 -7 -5 -2 -5 12 0 14 2 19 5 13 2 -7 2 -19 0
-25z m143 -4 c0 -8 -5 -12 -10 -9 -6 4 -8 11 -5 16 9 14 15 11 15 -7z m-40 -4
c0 -5 -2 -10 -4 -10 -3 0 -8 5 -11 10 -3 6 -1 10 4 10 6 0 11 -4 11 -10z"/>
<path d="M5260 4015 l-25 -45 -130 -2 c-71 -1 -193 -2 -270 -2 -77 -1 -142 -4
-145 -7 -5 -5 -652 -71 -820 -84 -41 -3 -187 -10 -325 -15 -314 -13 -499 -26
-690 -50 -409 -51 -516 -51 -730 1 -88 21 -95 22 -119 6 -51 -34 -49 -157 5
-236 36 -53 55 -66 44 -30 -6 19 32 125 41 116 2 -2 -3 -27 -11 -57 -22 -82
-4 -82 41 0 15 28 29 49 30 47 2 -2 -3 -25 -11 -52 -14 -46 -14 -50 4 -69 11
-12 23 -34 27 -49 5 -22 11 -27 25 -24 11 3 19 0 19 -5 0 -6 7 -4 16 3 15 12
16 10 9 -21 -11 -51 -11 -62 1 -67 6 -2 23 26 37 64 14 37 35 94 47 126 12 31
30 61 39 67 16 8 15 -1 -9 -80 -37 -116 -64 -239 -55 -248 4 -4 13 2 21 13 14
18 14 13 9 -50 -6 -65 -5 -69 9 -51 16 19 16 19 16 -2 0 -12 4 -22 10 -22 18
0 41 47 52 111 7 38 14 55 16 41 2 -13 -4 -68 -13 -123 -15 -91 -15 -122 0
-107 3 3 22 50 41 104 19 55 42 106 51 114 14 13 15 13 9 -5 -14 -48 -36 -169
-36 -197 0 -23 4 -29 15 -24 12 4 14 0 9 -19 -7 -29 9 -34 26 -7 9 13 10 5 5
-36 -4 -36 -3 -52 5 -47 5 3 10 11 10 16 0 6 29 84 65 175 36 91 68 176 71
190 4 14 8 23 10 21 3 -2 -13 -78 -35 -169 -22 -91 -45 -195 -51 -231 -7 -37
-15 -67 -19 -67 -9 0 -116 75 -177 125 -147 120 -198 183 -277 342 -41 81 -67
119 -67 97 0 -19 125 -242 165 -295 54 -69 228 -212 349 -285 83 -50 177 -86
269 -103 49 -9 68 4 20 14 -74 15 -147 37 -197 59 l-55 24 28 74 c15 40 40
108 55 151 30 83 44 100 22 27 -19 -64 -29 -196 -17 -219 11 -20 60 -26 62 -7
1 6 5 -2 9 -19 8 -37 12 -28 38 85 l20 85 -5 -105 c-5 -90 -3 -107 11 -119 19
-16 20 -12 6 23 -10 27 10 225 22 216 3 -3 15 3 26 13 19 18 20 17 25 -95 3
-62 10 -156 17 -208 10 -87 7 -212 -7 -284 -4 -24 -2 -28 11 -23 20 8 26 -3
30 -58 3 -52 16 -74 16 -27 0 17 5 34 10 37 6 4 10 -15 10 -49 0 -128 59 -151
99 -39 30 84 32 86 42 76 7 -7 3 -42 -11 -108 -22 -109 -23 -118 -12 -112 4 3
18 37 31 75 14 41 32 72 41 75 10 3 23 35 39 101 13 53 25 95 27 93 3 -2 0
-26 -7 -53 -20 -88 -36 -215 -28 -220 5 -2 15 17 24 43 8 26 13 35 10 18 -13
-78 -17 -192 -7 -199 11 -6 66 63 100 127 16 30 72 95 72 83 0 -2 -9 -29 -20
-61 -25 -72 -25 -85 -1 -85 21 0 66 40 119 105 l33 40 -6 -32 c-5 -24 -3 -33
7 -33 17 0 73 59 118 122 18 27 35 46 37 44 2 -2 -5 -35 -16 -72 -29 -96 -32
-124 -17 -124 16 0 45 74 97 244 34 115 75 206 97 220 5 3 -3 -28 -15 -67 -47
-141 -73 -357 -44 -357 11 0 55 93 98 203 19 50 57 135 84 189 27 54 49 109
49 124 0 39 50 172 68 179 13 5 14 -9 9 -117 -8 -154 -24 -222 -85 -351 -53
-111 -118 -184 -200 -226 -23 -12 -42 -26 -42 -32 0 -17 93 42 154 98 46 42
66 72 102 149 62 132 83 222 91 383 l6 133 -22 -7 c-19 -6 -21 -4 -15 19 8 34
-1 57 -21 50 -8 -4 -40 -56 -70 -116 -30 -60 -55 -104 -55 -97 0 24 90 318
115 374 14 32 24 60 21 62 -2 2 -31 -44 -66 -102 -34 -58 -64 -105 -66 -105
-2 0 2 16 10 35 92 220 107 275 57 217 -48 -56 -226 -437 -315 -674 -10 -25
-25 -48 -35 -51 -9 -2 -24 -27 -34 -54 -32 -88 -49 -97 -26 -14 56 208 191
567 270 723 42 82 11 56 -60 -50 -89 -136 -100 -153 -156 -272 -71 -149 -86
-177 -79 -150 14 56 80 222 129 327 29 62 58 127 64 145 9 28 25 40 108 83 86
44 107 50 170 54 l73 3 2 -113 2 -114 5 90 c5 73 13 106 43 175 60 141 98 220
104 220 11 0 -8 -105 -52 -285 -45 -182 -62 -237 -63 -202 -1 9 -5 17 -11 17
-6 0 -10 -55 -10 -145 0 -90 4 -145 10 -145 6 0 10 43 10 109 0 98 2 110 20
122 14 10 41 77 90 223 38 115 74 214 80 220 5 5 3 -12 -5 -39 -9 -28 -22 -72
-29 -100 -73 -262 -87 -317 -82 -322 3 -3 18 7 33 23 21 21 40 66 71 159 40
125 91 259 92 242 0 -5 -11 -52 -24 -105 -13 -53 -36 -150 -51 -215 l-27 -119
-61 -26 c-33 -14 -55 -28 -48 -30 14 -5 348 131 410 166 31 18 46 22 49 14 6
-19 22 -14 22 7 0 11 19 34 43 52 23 18 74 60 112 94 39 34 121 101 183 149
118 92 180 159 255 273 67 103 77 110 182 118 99 7 125 12 125 24 0 5 -19 5
-42 1 -24 -4 -71 -11 -105 -14 -53 -6 -63 -5 -63 9 0 8 -4 15 -10 15 -5 0 -10
-7 -10 -16 0 -13 -7 -15 -31 -10 -17 3 -46 6 -65 6 -32 0 -32 1 -23 32 20 72
5 78 -31 13z m-383 -94 c-6 -16 -19 -32 -29 -34 -10 -3 -18 -13 -18 -24 0 -23
-65 -212 -77 -224 -5 -5 -3 26 4 68 13 71 10 193 -4 179 -3 -3 -18 -44 -34
-90 -27 -81 -97 -218 -85 -166 3 14 17 77 31 140 41 181 31 164 105 171 129
11 120 13 107 -20z m30 -105 c-29 -74 -53 -133 -55 -132 -1 2 12 62 30 135 30
117 35 131 54 131 21 0 20 -6 -29 -134z m210 99 c-10 -32 -27 -48 -27 -25 0
23 -19 7 -25 -21 -5 -24 -9 -28 -16 -18 -8 12 -11 12 -19 -1 -5 -8 -10 -10
-10 -3 0 25 -39 -1 -56 -39 -27 -61 -29 -27 -3 63 l23 79 72 0 72 0 -11 -35z
m51 10 c-12 -27 -34 -35 -24 -9 3 9 6 20 6 25 0 5 7 9 15 9 12 0 13 -4 3 -25z
m52 16 c0 -6 -4 -13 -10 -16 -5 -3 -10 1 -10 9 0 9 5 16 10 16 6 0 10 -4 10
-9z m-5 -91 c-27 -64 -34 -75 -29 -45 8 46 54 155 60 140 2 -5 -12 -48 -31
-95z m118 18 c-31 -46 -58 -85 -60 -87 -18 -24 -7 99 15 157 2 7 23 12 53 12
l49 0 -57 -82z m-653 59 c0 -2 -15 -41 -34 -88 -35 -86 -116 -258 -116 -246 0
3 7 54 16 111 26 176 8 166 -72 -37 -38 -97 -70 -175 -71 -173 -2 2 10 56 27
120 36 140 38 176 11 176 -14 0 -21 -10 -26 -32 -9 -40 -117 -320 -121 -315
-2 2 8 44 21 93 85 303 69 387 -30 159 -21 -49 -42 -94 -46 -99 -4 -5 5 42 21
103 24 97 26 116 15 137 l-13 25 -21 -27 c-11 -15 -21 -32 -21 -39 0 -7 -7
-18 -15 -25 -12 -10 -15 -10 -15 4 0 9 -4 16 -10 16 -5 0 -10 9 -10 21 0 26
-18 16 -33 -19 l-11 -27 -4 28 c-3 23 -6 26 -18 16 -11 -9 -14 -9 -14 1 0 7
-6 10 -14 7 -9 -4 -13 4 -14 24 0 16 0 29 1 30 1 0 119 13 262 28 241 27 355
35 355 28z m566 -101 c-8 -37 -13 -73 -10 -80 6 -16 -112 -128 -254 -241 -62
-49 -136 -109 -165 -132 -28 -23 -53 -40 -55 -38 -5 5 23 90 70 210 43 109 68
149 43 70 -29 -95 -45 -159 -44 -185 0 -19 6 -13 24 30 32 71 77 160 71 138
-3 -10 -2 -18 3 -18 5 0 19 25 31 55 26 65 37 68 15 5 -17 -48 -20 -120 -5
-120 8 0 60 101 94 180 3 8 4 4 2 -10 -2 -14 -1 -34 3 -44 7 -17 9 -17 29 9
12 15 22 36 22 46 0 11 5 19 10 19 6 0 15 10 20 23 l9 22 0 -22 c2 -51 29 -20
61 68 18 49 34 89 36 86 2 -2 -3 -34 -10 -71z m-1213 9 c-13 -28 -19 -32 -25
-20 -13 22 -45 0 -71 -50 -19 -35 -22 -37 -25 -18 -2 17 -9 22 -28 21 -26 -3
-57 -31 -97 -90 l-25 -37 -5 26 c-3 15 -1 38 4 51 5 13 9 38 8 55 l0 32 -17
-24 c-9 -12 -37 -57 -60 -100 -24 -42 -41 -67 -37 -56 14 41 24 130 16 138
-10 10 -68 -37 -76 -64 -4 -11 -9 -18 -12 -16 -2 3 6 41 18 86 l22 81 86 1
c47 1 127 4 176 8 50 5 107 9 127 9 l38 2 -17 -35z m-449 -17 c-11 -39 -52
-114 -67 -127 -13 -10 -14 -4 -10 49 3 33 3 60 0 60 -3 0 -18 -20 -32 -44 -20
-34 -30 -43 -45 -39 -11 3 -20 12 -20 19 0 27 -20 14 -56 -37 l-37 -50 -15 30
c-8 17 -18 31 -23 31 -5 0 -21 -18 -35 -40 -30 -45 -40 -47 -24 -6 30 80 -5
66 -60 -25 -45 -72 -48 -72 -21 3 30 80 42 134 35 152 -9 24 -22 19 -40 -16
-9 -18 -29 -44 -43 -58 -14 -14 -31 -34 -38 -45 -11 -18 -12 -16 -12 18 -1 20
-5 37 -11 37 -5 0 -10 7 -10 15 0 25 -18 17 -35 -14 -26 -51 -35 -46 -31 16
l4 58 74 7 c127 13 329 25 446 27 113 1 113 1 106 -21z m-1524 -21 c0 -7 -9
-30 -20 -52 -21 -41 -28 -111 -10 -100 12 7 12 -11 1 -40 -7 -18 -10 -17 -26
14 -20 39 -17 150 5 176 15 18 50 20 50 2z m1979 -28 c-10 -45 -48 -124 -55
-116 -4 4 38 126 51 148 12 18 13 8 4 -32z m187 -36 c-13 -26 -32 -57 -41 -68
-15 -19 -15 -18 -2 15 29 73 62 132 65 117 2 -8 -8 -37 -22 -64z m-2058 51
c37 -10 68 -18 70 -19 1 -1 -2 -14 -7 -29 -12 -31 -31 -35 -31 -6 0 35 -16 22
-50 -41 -35 -67 -47 -72 -31 -12 23 82 7 98 -27 27 -27 -56 -38 -53 -19 4 8
23 12 53 10 67 -6 30 -3 30 85 9z m737 -36 c-14 -29 -29 -54 -35 -56 -15 -5
-12 10 6 36 9 13 13 26 10 30 -4 3 -13 -3 -20 -14 -27 -38 -58 -69 -53 -53 3
10 11 35 18 57 12 41 21 47 76 51 l22 1 -24 -52z m1081 0 c-6 -39 -50 -148
-59 -148 -5 0 57 190 62 190 2 0 1 -19 -3 -42z m-1211 2 c-21 -16 -42 -30 -46
-30 -5 0 -9 -4 -9 -10 0 -16 15 -12 55 16 l38 25 -6 -28 c-9 -45 -29 -89 -34
-75 -8 20 -30 14 -50 -14 l-19 -26 1 54 c0 46 -3 53 -21 56 -14 2 -27 -6 -39
-25 -10 -15 -29 -36 -41 -45 -23 -19 -59 -106 -94 -233 -19 -71 -40 -117 -40
-89 0 32 64 244 80 266 11 15 20 32 20 38 0 19 -20 10 -32 -15 -13 -28 -28
-33 -28 -9 0 10 -6 14 -15 10 -19 -7 -19 -1 1 57 26 78 11 90 -23 17 -30 -65
-30 -65 -43 -38 -9 18 -10 38 -3 65 l9 38 144 11 c80 6 165 11 189 12 l44 2
-38 -30z m1290 -30 c-24 -46 -31 -28 -9 22 12 26 20 36 22 26 2 -9 -4 -31 -13
-48z m-1786 43 c0 -5 -4 -17 -9 -28 -8 -18 -9 -17 -9 8 -1 15 4 27 9 27 6 0
10 -3 9 -7z m656 -40 c-6 -48 -38 -105 -77 -140 -18 -16 -18 -12 5 32 15 28
36 74 48 103 12 28 24 52 26 52 3 0 2 -21 -2 -47z m195 -28 c-43 -85 -52 -76
-11 11 17 37 34 64 38 61 3 -4 -9 -36 -27 -72z m-738 33 c-11 -18 -32 -53 -46
-78 -29 -51 -33 -43 -11 20 15 42 12 68 -4 41 -6 -10 -10 -9 -15 4 -3 9 -10
13 -16 10 -12 -7 -12 -3 -4 19 5 12 20 16 61 16 l55 0 -20 -32z m1737 -27
c-12 -29 -23 -50 -25 -48 -3 2 5 27 17 56 12 28 24 50 26 47 2 -2 -6 -27 -18
-55z m476 -67 c-19 -65 -53 -179 -75 -253 -22 -74 -38 -137 -36 -139 11 -11
45 40 69 103 34 87 49 113 41 68 -11 -54 11 -37 30 23 25 81 30 60 6 -27 -23
-83 -23 -89 -11 -89 4 0 16 20 25 45 10 25 21 45 25 45 5 0 18 28 31 63 33 93
82 208 87 204 2 -2 -8 -39 -23 -82 -17 -52 -22 -80 -15 -84 7 -5 6 -23 -3 -61
-8 -30 -17 -76 -21 -102 -6 -44 -9 -49 -58 -76 -29 -16 -79 -41 -112 -55 -122
-51 -167 -68 -170 -65 -9 12 232 615 242 605 2 -2 -12 -58 -32 -123z m-1034
85 c-5 -13 -10 -19 -10 -12 -1 15 10 45 15 40 3 -2 0 -15 -5 -28z m-97 -51
c-19 -57 -124 -272 -130 -266 -9 10 62 201 99 266 46 81 58 80 31 0z m267 39
c-9 -23 -31 -46 -31 -32 0 10 33 65 37 61 2 -2 -1 -15 -6 -29z m109 -94 c-24
-46 -44 -82 -46 -80 -6 5 30 104 57 161 20 41 25 45 27 26 2 -14 -14 -60 -38
-107z m316 81 c-4 -20 -10 -34 -12 -31 -3 3 -2 21 2 41 3 21 9 35 11 32 3 -3
2 -21 -1 -42z m-1162 -101 c-24 -82 -30 -46 -8 46 15 60 20 70 22 44 2 -17 -5
-57 -14 -90z m787 11 c-41 -81 -50 -94 -51 -69 0 32 27 89 67 143 43 57 36 28
-16 -74z m-1095 81 c3 -8 -3 -29 -13 -47 -11 -18 -26 -49 -33 -68 -16 -41 -51
-102 -56 -98 -6 7 45 180 60 203 19 28 34 32 42 10z m653 -44 c-40 -64 -50
-67 -14 -3 16 26 30 51 32 55 3 5 7 6 9 4 3 -2 -10 -28 -27 -56z m56 22 c-9
-37 -47 -125 -51 -120 -3 3 17 70 41 135 9 24 17 12 10 -15z m795 -77 c-15
-58 -31 -110 -35 -115 -3 -6 -34 -11 -68 -11 -56 0 -76 -7 -197 -65 -159 -75
-190 -85 -190 -59 0 16 -2 15 -20 -4 -13 -14 -33 -22 -53 -22 -18 0 -42 -3
-54 -6 -19 -5 -23 -2 -23 15 0 32 -28 25 -51 -13 -11 -19 -30 -37 -42 -40 -38
-10 -178 -7 -221 6 -50 14 -54 17 -37 27 7 5 26 46 42 92 32 92 87 214 93 208
3 -2 -13 -55 -35 -118 -42 -121 -44 -131 -30 -131 5 0 18 21 30 48 19 43 20
44 14 12 -9 -53 -9 -63 3 -67 6 -2 16 8 22 22 7 15 16 24 21 21 5 -4 37 47 71
111 34 65 66 122 71 128 5 5 -9 -37 -32 -93 -23 -57 -39 -106 -35 -110 4 -3
12 0 17 8 8 11 9 9 5 -10 -28 -119 -12 -133 32 -27 35 83 126 272 116 242 -38
-124 -54 -225 -35 -225 5 0 29 39 54 88 25 48 53 96 61 107 18 23 19 24 -30
-104 -13 -35 -24 -67 -24 -72 0 -19 18 -8 29 19 6 15 21 41 32 57 l20 30 -7
-39 c-9 -50 11 -46 44 10 13 21 21 30 18 19 -34 -133 -32 -171 4 -86 19 42 25
50 30 35 6 -17 8 -16 22 6 9 14 23 39 32 55 8 17 15 26 15 20 0 -5 -6 -21 -14
-35 -8 -14 -14 -31 -15 -37 0 -28 20 -10 59 52 44 69 57 82 41 39 -14 -35 -12
-47 5 -41 12 5 12 0 -2 -28 -9 -19 -13 -38 -8 -42 4 -5 10 -2 12 5 10 28 103
212 107 212 2 0 -2 -26 -9 -58 -31 -134 -25 -146 26 -52 18 32 34 58 36 57 1
-2 -4 -26 -11 -55 -13 -49 -13 -52 4 -52 13 0 33 26 65 85 25 47 48 85 50 85
2 0 -9 -47 -25 -104z m-1800 90 c0 -3 -4 -8 -10 -11 -5 -3 -10 -1 -10 4 0 6 5
11 10 11 6 0 10 -2 10 -4z m462 -22 c-7 -36 -22 -39 -22 -5 0 22 4 31 13 28 6
-2 10 -13 9 -23z m66 -162 c-34 -100 -63 -180 -65 -178 -6 6 69 259 93 313 47
104 34 46 -28 -135z m657 136 c-43 -96 -94 -203 -95 -197 -1 27 101 249 115
249 2 0 -7 -24 -20 -52z m900 -128 c-25 -96 -45 -177 -45 -179 0 -2 -2 -2 -5
1 -6 6 35 186 66 291 38 128 28 62 -16 -113z m519 126 c-9 -26 -18 -45 -20
-43 -2 2 3 25 12 51 9 26 18 45 20 43 2 -2 -3 -25 -12 -51z m-2824 -1 c-16
-47 -23 -40 -8 8 6 20 13 35 16 33 2 -3 -1 -21 -8 -41z m35 -11 c-8 -20 -18
-35 -21 -32 -2 3 3 25 12 49 10 23 19 38 21 32 2 -6 -3 -28 -12 -49z m79 19
c-8 -45 -31 -93 -44 -93 -8 0 -2 20 37 118 10 24 14 11 7 -25z m1001 -5 c-10
-43 -36 -110 -42 -104 -4 4 24 112 34 129 10 17 14 5 8 -25z m1419 -57 c-10
-33 -19 -59 -21 -57 -3 2 3 32 13 65 9 34 19 60 21 58 2 -3 -4 -32 -13 -66z
m-2294 -6 c-16 -58 -23 -52 -14 14 4 35 10 49 17 42 7 -7 6 -25 -3 -56z m1310
30 c-6 -15 -13 -25 -16 -23 -2 3 1 17 7 32 16 34 23 27 9 -9z m-474 16 c-9
-14 -66 -273 -66 -298 0 -28 -12 -35 -44 -27 l-25 6 48 138 c44 127 73 190 87
190 3 0 3 -4 0 -9z m-1022 -40 c-4 -17 -9 -30 -11 -27 -3 2 -2 19 2 36 9 41
17 33 9 -9z m516 26 c0 -15 -49 -117 -49 -103 -2 19 33 116 41 116 4 0 8 -6 8
-13z m67 -31 c-4 -24 -16 -65 -27 -92 l-21 -49 5 60 c3 50 30 125 45 125 2 0
1 -20 -2 -44z m86 24 c-6 -24 -23 -37 -23 -18 0 12 18 38 26 38 1 0 0 -9 -3
-20z m242 -95 c-19 -61 -35 -122 -35 -137 0 -39 -10 -58 -31 -58 -10 0 -19 1
-19 3 0 3 36 103 102 280 6 15 12 26 14 25 2 -2 -12 -53 -31 -113z m-80 10
c-41 -111 -59 -230 -37 -252 13 -12 12 -17 -7 -37 -11 -12 -21 -26 -21 -32 0
-5 -11 -36 -24 -68 l-24 -59 -8 49 c-4 29 -2 69 5 99 15 66 16 70 25 140 5 33
12 62 16 65 3 3 28 47 55 97 27 51 50 92 51 90 2 -1 -12 -43 -31 -92z m-572
60 c-3 -9 -8 -14 -10 -11 -3 3 -2 9 2 15 9 16 15 13 8 -4z m2123 -52 c-8 -15
-15 -25 -16 -21 0 12 23 58 27 54 3 -2 -2 -17 -11 -33z m-2246 -40 c-11 -52
-39 -122 -40 -99 0 16 44 165 48 161 2 -2 -2 -30 -8 -62z m641 10 c-12 -20
-14 -14 -5 12 4 9 9 14 11 11 3 -2 0 -13 -6 -23z m66 -77 c-17 -49 -33 -84
-35 -78 -3 11 21 85 49 145 23 52 18 22 -14 -67z m-603 45 c-4 -17 -9 -30 -11
-27 -3 2 -2 19 2 36 9 41 17 33 9 -9z m-84 -62 c-12 -46 -24 -86 -27 -89 -11
-10 8 102 24 141 25 63 26 39 3 -52z m169 45 c-11 -38 -28 -68 -36 -61 -2 2 6
27 18 56 25 60 33 62 18 5z m188 4 c-3 -8 -6 -5 -6 6 -1 11 2 17 5 13 3 -3 4
-12 1 -19z m-183 -156 c-26 -81 -50 -139 -52 -130 -6 28 47 229 70 266 38 61
32 17 -18 -136z m178 -34 c-38 -95 -75 -191 -82 -213 -30 -92 -18 -5 25 176
49 210 57 239 49 168 -5 -36 -2 -47 9 -52 12 -4 21 10 38 61 13 37 25 59 27
50 2 -9 -28 -95 -66 -190z m-106 150 c-10 -50 -47 -170 -51 -166 -2 2 5 37 17
78 11 41 22 85 25 98 8 34 16 26 9 -10z m326 -25 c-4 -42 -22 -61 -22 -24 0
21 19 76 24 70 1 -2 1 -23 -2 -46z m-122 -14 c-31 -84 -43 -80 -14 4 9 26 20
47 24 47 5 0 0 -23 -10 -51z m1499 -48 c-7 -23 -14 -39 -16 -37 -3 2 1 23 8
45 7 23 14 39 16 37 3 -2 -1 -23 -8 -45z m-1448 -2 c-5 -13 -10 -19 -10 -12
-1 15 10 45 15 40 3 -2 0 -15 -5 -28z m1099 -135 c-34 -87 -88 -229 -122 -314
-33 -85 -73 -191 -87 -235 -17 -49 -49 -113 -84 -166 -51 -76 -107 -143 -107
-127 0 3 18 41 39 84 22 44 65 142 96 219 31 77 62 154 69 170 8 17 37 86 66
155 52 126 180 384 186 377 2 -2 -23 -75 -56 -163z m-446 131 c-4 -8 -10 -15
-15 -15 -4 0 -6 7 -3 15 4 8 10 15 15 15 4 0 6 -7 3 -15z m224 -22 c-12 -21
-32 -56 -44 -78 -30 -52 -79 -180 -169 -440 -81 -231 -104 -290 -111 -282 -9
8 51 218 120 422 59 177 135 385 142 394 3 3 57 17 76 20 4 1 -2 -16 -14 -36z
m-98 10 c-1 -5 -12 -28 -26 -53 -14 -25 -23 -38 -21 -29 3 9 2 21 -3 28 -10
17 -48 -33 -94 -125 -33 -67 -149 -354 -176 -439 -7 -22 -15 -35 -17 -28 -4
12 26 98 151 425 31 81 59 161 62 177 5 26 12 31 43 36 20 4 43 8 51 10 27 5
30 5 30 -2z m-751 -115 c-19 -63 -24 -15 -7 60 12 55 13 56 16 20 2 -20 -2
-56 -9 -80z m165 106 c9 -3 16 -13 16 -21 0 -13 3 -13 15 -3 9 8 25 9 42 5 16
-5 37 -7 49 -6 27 3 74 -16 74 -29 0 -6 -11 -21 -24 -33 -33 -31 -50 -69 -79
-172 -44 -156 -65 -221 -66 -202 -2 34 38 211 64 286 14 41 25 84 25 95 -1 51
-41 -32 -95 -197 -31 -94 -62 -185 -70 -202 l-14 -30 5 30 c13 72 46 191 78
279 22 62 30 98 24 102 -16 10 -44 -30 -87 -121 -78 -165 -72 -154 -67 -120 3
17 16 82 30 145 19 88 30 119 47 133 21 17 21 18 4 31 -29 21 -7 44 29 30z
m-213 -35 c-5 -13 -10 -19 -10 -12 -1 15 10 45 15 40 3 -2 0 -15 -5 -28z m654
-21 c-7 -24 -39 -113 -72 -198 -33 -85 -79 -208 -104 -272 -24 -65 -50 -120
-57 -122 -14 -6 -13 3 25 139 73 265 149 463 186 487 29 18 35 9 22 -34z m-67
-3 c-6 -14 -17 -24 -24 -21 -20 8 -44 -28 -80 -116 -43 -105 -43 -92 -2 44
l33 107 35 4 c19 2 38 4 42 5 4 1 2 -9 -4 -23z m-108 10 c0 -3 -13 -31 -29
-63 -35 -71 -57 -137 -122 -377 -28 -104 -53 -192 -56 -195 -21 -20 33 223 94
420 25 80 50 162 56 183 9 29 16 37 34 37 13 0 23 -2 23 -5z m225 -94 c-14
-28 -27 -51 -30 -51 -6 0 21 74 37 99 24 39 20 3 -7 -48z m166 46 c-10 -9 -11
-8 -5 6 3 10 9 15 12 12 3 -3 0 -11 -7 -18z m69 -71 c-53 -128 -171 -478 -205
-607 -24 -95 -33 -115 -84 -179 -31 -40 -66 -80 -78 -88 -22 -14 -23 -13 -23
11 0 18 4 25 14 21 10 -4 31 46 80 193 82 247 144 406 213 546 48 98 107 197
118 197 2 0 -14 -42 -35 -94z m-1025 -31 c-29 -112 -45 -136 -25 -39 18 84 40
157 47 150 3 -3 -6 -53 -22 -111z m554 58 c-11 -32 -40 -136 -65 -232 -24 -96
-46 -176 -48 -178 -2 -2 -6 7 -10 21 -11 46 113 446 139 446 2 0 -5 -26 -16
-57z m302 29 c-27 -50 -184 -548 -206 -655 -26 -121 -55 -192 -117 -289 -16
-27 -34 -48 -39 -48 -13 0 -11 48 1 52 6 2 51 120 99 263 137 403 256 714 268
702 2 -3 0 -14 -6 -25z m-270 -133 c-22 -68 -55 -173 -75 -234 -39 -123 -43
-128 -20 -22 26 121 120 394 131 383 2 -2 -14 -59 -36 -127z m345 94 c-8 -15
-15 -25 -16 -21 0 12 23 58 27 54 3 -2 -2 -17 -11 -33z m286 -104 c-29 -106
-48 -152 -87 -217 -27 -44 -51 -79 -53 -77 -10 10 73 243 119 335 28 56 52
100 54 98 2 -2 -13 -65 -33 -139z m-922 33 c-36 -99 -80 -286 -80 -341 0 -22
-4 -43 -10 -46 -5 -3 -10 0 -11 7 0 7 -4 51 -8 98 -5 46 -5 91 0 100 5 8 27
58 50 110 41 96 78 164 85 157 2 -2 -9 -40 -26 -85z m434 -143 c-36 -96 -86
-237 -112 -313 -25 -77 -47 -135 -49 -129 -10 29 114 392 197 576 45 101 27
34 -36 -134z m586 97 c-34 -112 -54 -156 -71 -161 -9 -3 -27 -20 -38 -38 -11
-18 -21 -26 -21 -19 0 15 94 226 117 261 22 34 29 11 13 -43z m-1123 12 c-3
-8 -6 -5 -6 6 -1 11 2 17 5 13 3 -3 4 -12 1 -19z m139 -84 c-8 -38 -20 -96
-27 -129 -11 -56 -13 -58 -20 -31 -6 22 0 56 23 132 18 57 33 102 35 100 2 -2
-3 -34 -11 -72z m-146 47 c0 -6 -4 -13 -10 -16 -5 -3 -10 1 -10 9 0 9 5 16 10
16 6 0 10 -4 10 -9z m1054 -188 c-9 -21 -29 -74 -46 -118 -27 -72 -93 -205
-103 -205 -13 0 97 284 131 335 25 38 36 30 18 -12z m-916 -109 c-32 -114 -33
-117 -36 -72 -2 29 3 56 11 70 8 13 22 47 32 76 31 96 26 48 -7 -74z m-39
-344 c9 0 26 40 90 215 43 120 51 112 30 -30 -10 -63 -14 -73 -25 -64 -18 15
-17 16 -42 -51 -31 -86 -44 -110 -58 -110 -7 0 -16 10 -20 23 -11 29 -8 413 3
430 4 6 9 -84 11 -200 1 -117 6 -213 11 -213z m72 358 c-6 -29 -15 -93 -20
-143 -5 -52 -17 -109 -29 -135 l-21 -45 0 70 c-1 39 3 75 8 80 4 6 21 61 37
122 28 115 45 148 25 51z m755 -59 c-20 -57 -33 -88 -30 -69 8 50 57 196 61
183 2 -6 -12 -57 -31 -114z m-356 -21 c-33 -115 -48 -151 -36 -88 11 57 59
211 64 205 3 -2 -10 -55 -28 -117z m272 20 c-8 -8 -9 -4 -5 13 4 13 8 18 11
10 2 -7 -1 -18 -6 -23z m-790 -80 c-4 -87 -14 -110 -26 -65 -8 32 -7 60 5 117
16 76 27 48 21 -52z m277 -53 c-12 -42 -24 -74 -26 -71 -2 2 5 41 16 86 12 46
22 86 22 89 1 3 3 -2 6 -12 2 -9 -5 -51 -18 -92z m461 -55 c-17 -56 -34 -100
-37 -96 -3 3 6 45 21 93 36 118 36 117 42 110 3 -3 -8 -51 -26 -107z m-557
-33 c-22 -58 -26 -59 -18 -7 9 53 13 62 25 55 5 -3 2 -24 -7 -48z m658 -34
c-11 -21 -20 -32 -21 -25 0 17 30 75 36 69 3 -3 -4 -22 -15 -44z"/>
<path d="M2140 2333 c0 -8 92 -63 105 -63 15 0 -8 20 -51 44 -51 28 -54 30
-54 19z"/>
<path d="M3010 2289 c0 -15 7 -32 15 -39 19 -16 19 -11 0 31 -14 33 -14 33
-15 8z"/>
<path d="M2260 2262 c0 -10 296 -172 315 -172 17 0 0 20 -27 31 -18 7 -89 44
-157 81 -134 73 -131 72 -131 60z"/>
<path d="M3723 2253 c-29 -14 -44 -33 -28 -33 14 0 65 32 65 40 0 12 3 12 -37
-7z"/>
<path d="M3050 2231 c0 -5 5 -13 10 -16 6 -3 10 -2 10 4 0 5 -4 13 -10 16 -5
3 -10 2 -10 -4z"/>
<path d="M3643 2208 c-25 -33 -25 -40 1 -23 26 17 35 35 17 35 -5 0 -13 -6
-18 -12z"/>
<path d="M3095 2180 c10 -11 25 -20 34 -20 12 1 10 5 -8 20 -30 26 -49 26 -26
0z"/>
<path d="M3569 2160 c-37 -21 -184 -33 -289 -23 -104 10 -119 9 -107 -4 12
-12 250 -26 266 -16 9 5 34 10 56 11 49 3 105 20 105 33 0 11 -10 11 -31 -1z"/>
</g>
</svg>
