<?xml version="1.0" encoding="UTF-8"?>
<svg id="Layer_1" data-name="Layer 1" xmlns="http://www.w3.org/2000/svg" xmlns:xlink="http://www.w3.org/1999/xlink" viewBox="0 0 366.24 324.19">
  <defs>
    <style>
      .cls-1 {
        clip-path: url(#clippath);
      }

      .cls-2, .cls-3, .cls-4, .cls-5, .cls-6, .cls-7, .cls-8, .cls-9 {
        stroke-width: 0px;
      }

      .cls-2, .cls-10 {
        fill: none;
      }

      .cls-3 {
        fill: #f2cd30;
      }

      .cls-4 {
        fill: #e379af;
      }

      .cls-5 {
        fill: #d62428;
      }

      .cls-6 {
        fill: #000;
      }

      .cls-7, .cls-11 {
        fill: #e05368;
      }

      .cls-11 {
        stroke: #fff;
      }

      .cls-11, .cls-10 {
        stroke-linecap: round;
        stroke-linejoin: round;
      }

      .cls-10 {
        stroke: #3553a3;
        stroke-width: 6px;
      }

      .cls-8 {
        fill: #fff;
      }

      .cls-9 {
        fill: #d62327;
      }
    </style>
    <clipPath id="clippath">
      <path class="cls-2" d="M133.93,281.15c.42-.97,37.95,56.05,57.22,40.29,19.27-15.76-4.51-64.68-5.25-64.81s-52.39,25.5-51.96,24.52Z"/>
    </clipPath>
  </defs>
  <path class="cls-5" d="M206.45,177.6c6.56,2.26,13.99.33,19.82-3.43,5.83-3.76,10.38-9.17,14.84-14.49,3.19-3.81,6.46-7.79,7.71-12.6,1.33-5.15.7-11.33-2.72-15.39-4.23-5.02-7.89-9.63-9.86-16.04-1.55-5.05-2.05-10.46-4.44-15.17-3.98-7.86-11.2-7.28-18.65-8.66-7.99-1.49-16.76-1.82-23.28-7.29-3.4-2.84-6.19-6.67-6.85-11.05-.95-6.29,4.63-10.9,5.14-11.35,1.54-1.35,5.83-4.52,16.53-3.68,17.24,1.36,31.51,11.56,38.71,17.55-.25-15.01.03-27.77.43-37.62.82-20.5,2.18-30.71,8.74-33.91,2.01-.98,4.01-1.06,5.37-.98,2.89,1.64,7.86,4.76,11.45,10.61,2.79,4.55,4.55,9.85,5.25,15.15,1.4,10.58-.76,21.27-2.91,31.73,2.78-16.42,6.9-32.62,12.29-48.39,1.08-3.17,2.27-6.4,4.46-8.94,2.19-2.53,5.64-4.25,8.9-3.49,5.3,1.23,7.21,7.69,7.83,13.09,2.07,17.94.51,36.29-4.58,53.61,6.12-12.84,12.25-25.69,18.37-38.53,2.28-4.78,6.09-10.39,11.29-9.39,5.37,1.03,6.69,8.1,6.28,13.56-1.09,14.52-5.87,28.74-13.78,40.96,6.32-8.59,14.22-16.01,23.18-21.79,5.66-3.65,14.08-6.25,18.37-1.06,2.47,2.99,2.28,7.41,1.02,11.08-3.36,9.79-12.63,16.04-20.32,22.98-6.21,5.6-9.3,12.95-13.65,20.08-4.63,7.6-9.62,14.98-14.95,22.11-10.23,13.7-15.33,24.97-20.45,40.94s-15.18,30.45-28.56,40.64c-20.79,15.83-60.1,26.72-81.37,6.78-4.43-4.16-8.06-9.52-8.76-15.55-.7-6.04,2.12-12.7,7.64-15.24,5.02-2.31,10.85-.89,16.28.15,10.37,2,12.6,3.44,16.74,2.18,2.93-.89-15.4,8.59,10.25-10.34-7.8,11.8-17.14,16.76-29.31,23.98"/>
  <circle class="cls-3" cx="119.4" cy="201.9" r="119.4"/>
  <path class="cls-6" d="M66.56,251.87c-1.17-13.41,130.79-30.9,131.95-17.49,1.17,13.41-9.34,39.64-53.13,48.39-16.66,3.33-31.89,1.59-44.42-2.58-20.4-6.79-33.68-20.01-34.4-28.32Z"/>
  <g class="cls-1">
    <path class="cls-7" d="M133.35,279.92s37.95,56.05,57.22,40.29c19.27-15.76-5.25-64.81-5.25-64.81l-51.96,24.52Z"/>
    <path class="cls-11" d="M160.95,268.3c10.61,7.64,15.42,17.49,16.93,28.61"/>
  </g>
  <polygon class="cls-8" points="97.96 238.65 102.37 249.03 115.35 246.44 112.49 235.8 97.96 238.65"/>
  <path class="cls-8" d="M122.56,234.26c1.03,3.43,2.07,6.87,3.1,10.3,4.3-.45,8.61-.9,12.91-1.35-.43-3.7-.85-7.4-1.28-11.11-4.91.72-9.82,1.44-14.73,2.15Z"/>
  <path class="cls-8" d="M137.3,232.11l2.73,10.94c4.31-.48,8.63-.96,12.94-1.44-.29-3.63-.58-7.27-.88-10.9-4.93.47-9.87.93-14.8,1.4Z"/>
  <path class="cls-8" d="M152.14,230.73l2.47,11c4.33-.38,8.65-.75,12.98-1.13-.2-3.64-.41-7.28-.61-10.92-2.92.18-5.87.37-8.84.59-2.01.15-4.01.3-5.99.46Z"/>
  <path class="cls-8" d="M99.65,279.65c.1-.34,10.51-16.15,10.51-16.15l-.39,19.07c-3.33-.62-10.22-2.58-10.12-2.92Z"/>
  <g>
    <ellipse class="cls-9" cx="67.23" cy="191.15" rx="14.3" ry="29.06" transform="translate(-135.23 199.3) rotate(-72.93)"/>
    <circle class="cls-8" cx="66.66" cy="189.54" r="5.71"/>
  </g>
  <path class="cls-4" d="M146.81,155.72c-.52.13-6.62,1.68-10.05,6.72-5.66,8.32.08,20.08,1.41,22.81,8.14,16.68,28.54,20.37,31.86,20.92,4.62-1.78,11.58-5.29,17.5-12.21,1.7-1.99,13.57-16.3,9.29-31.77-.56-2.02-3.06-11.08-10.27-13.61-3.09-1.09-6.01-.61-8.42-.21-4.82.8-10.24,2.97-12.55,6.33-1.17,1.7-1.78,3.04-1.78,3.04-1.08,2.36-.96,3.51-1.6,3.7-1.15.34-2.07-3.1-4.98-5.04-3.6-2.4-8.29-1.18-10.4-.68Z"/>
  <path class="cls-6" d="M51.65,147.73l55.34,30.29s-20.15,1.11-36.6-7.15c-20.1-11.5-18.74-23.14-18.74-23.14Z"/>
  <path class="cls-6" d="M162.24,173.76c-.14.03-1.76.46-2.66,1.81-1.48,2.23.07,5.34.43,6.06,2.21,4.41,7.64,5.35,8.52,5.48,1.22-.48,3.07-1.44,4.62-3.29.45-.53,3.57-4.37,2.39-8.47-.15-.54-.84-2.94-2.76-3.59-.83-.28-1.6-.15-2.24-.03-1.28.22-2.71.82-3.32,1.71-.31.46-.47.81-.47.81-.28.63-.25.93-.42.99-.3.09-.56-.82-1.34-1.33-.96-.63-2.21-.29-2.77-.15Z"/>
  <path class="cls-6" d="M155.6,136.37c12.92-2.47,26.21-1.54,39.33-.61-12.38-7.45-27.22-11.89-41.37-8.95-6.17,1.28-12.03,4.18-16.83,8.26-3.03,2.57-11.19,10.4-9.04,14.67,8.67-6.49,17.07-11.3,27.9-13.37Z"/>
  <path class="cls-10" d="M61.55,114.02c12.36-6.31,25.41-11.28,38.83-14.8-7.27,9.38-15.71,17.85-25.07,25.15,13.55-3.68,27.26-6.77,41.07-9.27"/>
  <path class="cls-10" d="M103.15,80.4c12.36-6.31,25.41-11.28,38.83-14.8-7.27,9.38-15.71,17.85-25.07,25.15,13.55-3.68,27.26-6.77,41.07-9.27"/>
  <path class="cls-10" d="M149.73,47.28c12.36-6.31,25.41-11.28,38.83-14.8-7.27,9.38-15.71,17.85-25.07,25.15,13.55-3.68,27.26-6.77,41.07-9.27"/>
</svg>